<svg id="svg" version="1.1" xmlns="http://www.w3.org/2000/svg" xmlns:xlink="http://www.w3.org/1999/xlink" width="400" height="400" viewBox="0, 0, 400,400"><g id="svgg"><path id="path0" d="M131.369 168.137 C 131.252 168.442,131.219 181.631,131.296 197.446 C 131.449 228.732,131.403 228.069,133.765 232.732 C 135.372 235.903,135.123 235.903,142.023 232.732 C 149.383 229.349,149.075 229.586,148.282 227.917 C 147.936 227.186,147.415 226.051,147.126 225.394 C 146.714 224.459,146.557 218.075,146.400 196.000 L 146.200 167.800 138.891 167.691 C 132.954 167.602,131.542 167.686,131.369 168.137 M58.705 185.584 C 50.319 187.126,46.600 191.368,46.600 199.391 C 46.600 207.532,50.674 211.794,61.572 215.057 C 65.572 216.254,67.200 217.389,67.200 218.981 C 67.200 222.119,61.721 222.791,51.042 220.964 C 46.726 220.226,47.010 219.939,46.267 225.794 C 45.538 231.536,45.425 231.339,49.917 232.158 C 71.315 236.060,82.106 231.522,82.160 218.600 C 82.194 210.362,79.640 207.528,68.851 203.833 C 61.668 201.372,60.817 200.779,61.361 198.613 C 61.878 196.552,69.739 195.920,76.972 197.358 C 80.767 198.113,80.410 198.397,81.056 194.102 C 81.938 188.240,81.843 187.351,80.300 187.027 C 73.313 185.559,62.698 184.849,58.705 185.584 M99.800 185.434 C 93.977 185.997,87.537 186.962,87.044 187.346 C 86.442 187.815,87.223 197.390,87.920 198.075 C 88.074 198.227,89.460 198.183,91.000 197.976 C 97.169 197.149,107.303 197.026,108.723 197.760 C 111.686 199.292,111.287 201.597,108.057 201.608 C 92.085 201.663,85.427 206.486,85.427 218.000 C 85.427 226.822,88.076 230.571,95.714 232.561 C 105.327 235.065,124.088 231.862,124.946 227.571 C 125.654 224.028,125.214 197.730,124.402 195.101 C 122.120 187.713,113.056 184.152,99.800 185.434 M167.000 185.596 C 155.127 187.330,149.914 196.904,151.598 213.885 C 153.351 231.576,162.632 236.169,188.579 232.186 C 193.449 231.439,192.993 232.199,192.290 226.005 C 191.567 219.641,192.260 220.224,186.127 220.815 C 172.028 222.173,166.400 221.180,166.400 217.334 C 166.400 216.075,166.173 216.124,175.380 215.401 C 182.879 214.812,191.329 213.825,192.900 213.355 C 194.632 212.838,193.425 198.854,191.247 194.200 C 187.988 187.235,178.596 183.902,167.000 185.596 M209.800 185.629 C 201.893 186.956,197.617 191.856,197.611 199.600 C 197.605 207.092,201.893 211.549,212.319 214.885 C 217.133 216.426,218.400 217.247,218.400 218.827 C 218.400 222.125,213.213 222.808,202.242 220.956 C 197.979 220.236,198.211 220.034,197.618 225.000 C 197.355 227.200,197.048 229.390,196.935 229.867 C 196.565 231.430,200.233 232.402,209.640 233.234 C 225.536 234.639,233.377 229.805,233.377 218.600 C 233.377 210.188,230.667 207.271,219.411 203.566 C 205.932 199.129,212.687 194.516,228.383 197.438 C 230.024 197.743,231.486 197.860,231.631 197.697 C 232.039 197.240,233.192 187.836,232.877 187.531 C 231.346 186.046,215.231 184.718,209.800 185.629 M251.948 185.628 C 240.862 187.257,236.731 193.710,236.731 209.400 C 236.731 227.737,243.319 234.515,260.081 233.420 C 273.279 232.557,278.152 227.123,279.062 212.250 C 280.328 191.554,271.385 182.773,251.948 185.628 M296.600 185.433 C 291.671 185.912,284.446 186.924,284.004 187.198 C 283.449 187.540,284.131 197.473,284.752 198.106 C 284.917 198.275,286.481 198.207,288.226 197.955 C 289.972 197.704,294.609 197.476,298.531 197.449 L 305.663 197.400 306.631 198.522 C 308.845 201.086,308.416 201.358,301.200 201.960 C 287.169 203.130,282.012 207.440,282.012 218.000 C 282.012 227.373,286.289 231.892,296.400 233.202 C 304.692 234.276,318.673 231.814,321.402 228.798 C 322.341 227.761,322.828 203.897,322.022 198.388 C 320.551 188.326,311.947 183.942,296.600 185.433 M344.000 185.444 C 339.142 185.991,334.109 187.356,330.743 189.040 L 328.887 189.970 328.619 196.485 C 328.471 200.068,328.407 209.660,328.475 217.800 L 328.600 232.600 335.879 232.709 L 343.159 232.818 343.284 216.309 C 343.352 207.229,343.560 199.487,343.745 199.104 C 344.184 198.198,346.668 197.548,349.876 197.500 C 351.286 197.478,352.537 197.302,352.656 197.109 C 352.996 196.560,354.043 185.909,353.783 185.650 C 353.509 185.375,346.010 185.218,344.000 185.444 M176.004 197.651 C 178.255 198.916,179.748 203.515,178.298 204.718 C 176.674 206.067,165.600 205.968,165.600 204.606 C 165.600 198.492,171.036 194.858,176.004 197.651 M261.492 198.251 C 265.404 200.693,265.181 218.541,261.213 220.593 C 258.364 222.066,253.807 221.072,252.507 218.693 C 251.572 216.983,251.451 202.628,252.353 200.490 C 253.591 197.554,258.463 196.361,261.492 198.251 M110.639 212.215 C 111.056 213.875,110.619 220.741,110.062 221.298 C 108.958 222.402,102.168 221.950,100.909 220.689 C 99.568 219.346,99.381 215.716,100.561 213.915 C 102.136 211.513,110.125 210.165,110.639 212.215 M307.512 215.807 C 307.653 221.322,307.455 221.673,304.067 221.918 C 298.667 222.308,296.800 221.103,296.800 217.224 C 296.800 213.152,299.843 211.114,305.600 211.332 L 307.400 211.400 307.512 215.807 " stroke="none" fill="#40a638" fill-rule="evenodd"></path><path id="path1" d="M0.000 200.000 L 0.000 400.000 200.000 400.000 L 400.000 400.000 400.000 200.000 L 400.000 0.000 200.000 0.000 L 0.000 0.000 0.000 200.000 M147.200 195.400 L 147.400 223.800 148.700 226.555 C 149.415 228.071,150.000 229.475,150.000 229.676 C 150.000 230.299,136.883 236.400,135.542 236.400 C 134.550 236.400,132.633 233.372,131.491 230.000 C 130.644 227.499,129.793 169.359,130.574 167.324 C 130.741 166.889,132.370 166.805,138.891 166.892 L 147.000 167.000 147.200 195.400 M74.600 185.002 C 83.680 186.484,83.124 185.892,82.197 193.084 C 81.341 199.724,82.228 199.146,74.600 198.034 C 61.810 196.170,58.086 199.142,68.704 202.738 C 80.513 206.739,82.967 209.466,82.980 218.600 C 82.998 231.228,74.570 235.984,55.698 233.996 C 44.543 232.821,44.465 232.759,45.323 225.780 C 46.201 218.638,45.556 219.131,52.635 220.198 C 66.104 222.228,71.127 219.393,60.509 215.754 C 49.013 211.814,45.800 208.241,45.800 199.400 C 45.800 186.893,55.740 181.923,74.600 185.002 M115.000 185.356 C 120.066 186.787,123.415 189.712,125.286 194.339 C 126.220 196.650,126.747 225.424,125.910 228.419 C 125.148 231.145,116.352 233.872,107.000 234.281 C 90.865 234.987,84.283 230.269,84.283 218.000 C 84.283 206.577,89.683 202.091,104.907 200.866 C 109.568 200.491,109.742 200.436,109.370 199.465 C 108.775 197.914,105.265 197.700,95.200 198.600 C 86.836 199.348,87.242 199.363,86.831 198.281 C 86.154 196.501,85.449 186.741,85.973 186.417 C 86.420 186.140,89.464 185.633,95.600 184.813 C 99.964 184.229,112.228 184.572,115.000 185.356 M180.219 184.947 C 186.974 186.398,191.101 190.007,193.121 196.229 C 194.718 201.147,195.236 212.543,193.922 213.844 C 193.132 214.626,181.877 216.074,172.200 216.639 C 166.993 216.942,167.001 216.939,167.853 218.382 C 169.121 220.528,175.053 220.988,186.200 219.804 C 192.295 219.156,192.779 219.272,192.814 221.376 C 192.821 221.829,193.072 224.270,193.372 226.800 C 194.081 232.791,194.527 232.343,186.740 233.455 C 160.123 237.256,150.761 231.070,150.641 209.600 C 150.556 194.396,154.174 187.802,164.013 185.226 C 167.606 184.285,176.429 184.134,180.219 184.947 M227.124 185.236 C 234.959 186.543,234.414 185.820,233.393 193.544 C 232.590 199.626,233.407 199.143,225.800 198.034 C 213.256 196.206,209.196 199.197,219.600 202.601 C 231.438 206.475,234.184 209.485,234.195 218.600 C 234.204 227.091,230.736 231.673,222.800 233.651 C 219.537 234.465,207.247 234.318,202.600 233.411 C 200.620 233.024,198.511 232.619,197.913 232.510 C 195.842 232.135,195.671 229.683,197.136 221.400 L 197.418 219.800 199.409 219.814 C 200.504 219.822,203.020 220.047,205.000 220.313 C 217.352 221.975,222.257 219.160,212.522 215.995 C 200.448 212.070,196.985 208.363,197.017 199.400 C 197.063 186.520,206.945 181.871,227.124 185.236 M265.519 184.968 C 276.107 187.240,279.812 193.687,279.788 209.800 C 279.760 228.813,273.575 235.069,255.600 234.269 C 240.549 233.598,235.064 226.224,235.714 207.533 C 236.204 193.436,240.184 187.112,249.902 184.985 C 253.016 184.303,262.373 184.294,265.519 184.968 M310.966 185.191 C 316.783 186.679,320.271 189.426,322.076 193.941 C 323.059 196.398,323.667 220.008,322.918 226.600 L 322.600 229.400 319.697 230.839 C 310.674 235.311,293.868 235.610,287.225 231.416 C 283.070 228.793,281.203 224.594,281.196 217.858 C 281.184 205.696,286.825 201.839,306.714 200.408 C 306.777 200.404,306.646 200.059,306.423 199.642 C 305.465 197.853,302.566 197.654,291.744 198.633 C 283.154 199.410,283.801 199.678,283.275 195.133 C 282.112 185.098,280.948 186.386,292.600 184.820 C 297.663 184.140,307.643 184.341,310.966 185.191 M354.167 184.643 C 354.945 184.941,354.967 187.187,354.254 193.212 C 353.625 198.526,353.863 198.251,349.687 198.489 C 347.742 198.600,345.757 198.902,345.276 199.160 L 344.400 199.628 344.400 216.186 C 344.400 230.704,344.323 232.820,343.771 233.371 C 342.941 234.202,329.377 234.310,328.263 233.495 C 327.314 232.801,327.410 190.592,328.363 189.444 C 330.972 186.303,349.506 182.854,354.167 184.643 M169.148 198.603 C 167.972 199.243,166.800 201.764,166.800 203.656 L 166.800 204.896 171.900 204.613 C 177.958 204.276,178.243 204.117,177.572 201.453 C 176.761 198.233,172.490 196.788,169.148 198.603 M255.400 198.778 C 251.907 200.208,250.987 215.383,254.170 219.083 C 256.078 221.301,260.598 220.689,262.178 217.999 C 263.179 216.295,263.417 203.773,262.497 201.184 C 261.662 198.836,258.159 197.649,255.400 198.778 M104.000 212.854 C 99.937 213.963,99.415 219.781,103.285 220.823 C 104.938 221.268,109.014 221.024,109.363 220.460 C 109.460 220.303,109.667 218.426,109.824 216.288 L 110.110 212.400 107.755 212.436 C 106.460 212.456,104.770 212.644,104.000 212.854 M300.751 213.025 C 298.467 213.728,298.068 214.194,297.748 216.530 C 297.285 219.903,299.524 221.552,303.835 221.013 C 306.557 220.673,306.800 220.248,306.800 215.826 L 306.800 212.400 304.700 212.428 C 303.545 212.443,301.768 212.712,300.751 213.025 " stroke="none" fill="#fbfbfb" fill-rule="evenodd"></path><path id="path2" d="M328.101 192.600 C 328.105 193.480,328.187 193.793,328.283 193.295 C 328.379 192.798,328.375 192.078,328.275 191.695 C 328.175 191.313,328.096 191.720,328.101 192.600 M66.711 197.093 C 67.651 197.178,69.091 197.177,69.911 197.091 C 70.730 197.005,69.960 196.936,68.200 196.937 C 66.440 196.939,65.770 197.009,66.711 197.093 M217.911 197.093 C 218.851 197.178,220.291 197.177,221.111 197.091 C 221.930 197.005,221.160 196.936,219.400 196.937 C 217.640 196.939,216.970 197.009,217.911 197.093 M171.900 197.482 C 172.395 197.578,173.205 197.578,173.700 197.482 C 174.195 197.387,173.790 197.309,172.800 197.309 C 171.810 197.309,171.405 197.387,171.900 197.482 M97.700 197.876 C 98.085 197.976,98.715 197.976,99.100 197.876 C 99.485 197.775,99.170 197.693,98.400 197.693 C 97.630 197.693,97.315 197.775,97.700 197.876 M294.500 197.876 C 294.885 197.976,295.515 197.976,295.900 197.876 C 296.285 197.775,295.970 197.693,295.200 197.693 C 294.430 197.693,294.115 197.775,294.500 197.876 M349.505 197.883 C 350.002 197.979,350.722 197.975,351.105 197.875 C 351.487 197.775,351.080 197.696,350.200 197.701 C 349.320 197.705,349.007 197.787,349.505 197.883 M322.493 199.200 C 322.493 199.970,322.575 200.285,322.676 199.900 C 322.776 199.515,322.776 198.885,322.676 198.500 C 322.575 198.115,322.493 198.430,322.493 199.200 M125.776 210.800 C 125.776 217.070,125.832 219.635,125.899 216.500 C 125.967 213.365,125.967 208.235,125.899 205.100 C 125.832 201.965,125.776 204.530,125.776 210.800 M110.000 200.333 C 110.000 200.590,109.595 200.821,109.100 200.846 C 108.359 200.885,108.331 200.927,108.942 201.084 C 109.740 201.289,110.725 200.591,110.273 200.140 C 110.123 199.990,110.000 200.077,110.000 200.333 M150.924 206.600 C 150.926 207.920,151.001 208.412,151.090 207.693 C 151.179 206.974,151.177 205.894,151.086 205.293 C 150.995 204.692,150.922 205.280,150.924 206.600 M343.597 218.600 L 343.400 233.000 336.000 233.214 L 328.600 233.427 335.851 233.514 C 341.579 233.582,343.197 233.485,343.556 233.053 C 343.881 232.662,343.980 228.469,343.902 218.353 L 343.795 204.200 343.597 218.600 M167.300 205.476 C 167.685 205.576,168.315 205.576,168.700 205.476 C 169.085 205.375,168.770 205.293,168.000 205.293 C 167.230 205.293,166.915 205.375,167.300 205.476 M88.175 206.900 L 87.000 208.200 88.300 207.025 C 89.512 205.930,89.784 205.600,89.475 205.600 C 89.406 205.600,88.821 206.185,88.175 206.900 M194.140 208.800 C 194.140 210.670,194.209 211.435,194.293 210.500 C 194.377 209.565,194.377 208.035,194.293 207.100 C 194.209 206.165,194.140 206.930,194.140 208.800 M263.737 209.400 C 263.739 211.160,263.809 211.830,263.893 210.889 C 263.978 209.949,263.977 208.509,263.891 207.689 C 263.805 206.870,263.736 207.640,263.737 209.400 M229.200 207.325 C 229.200 207.394,229.785 207.979,230.500 208.625 L 231.800 209.800 230.625 208.500 C 229.530 207.288,229.200 207.016,229.200 207.325 M150.914 211.800 C 150.917 212.900,150.995 213.303,151.087 212.695 C 151.179 212.086,151.177 211.186,151.082 210.695 C 150.987 210.203,150.911 210.700,150.914 211.800 M305.105 211.883 C 305.602 211.979,306.322 211.975,306.705 211.875 C 307.087 211.775,306.680 211.696,305.800 211.701 C 304.920 211.705,304.607 211.787,305.105 211.883 M100.101 217.400 C 100.105 218.280,100.187 218.593,100.283 218.095 C 100.379 217.598,100.375 216.878,100.275 216.495 C 100.175 216.113,100.096 216.520,100.101 217.400 M170.100 216.276 C 170.485 216.376,171.115 216.376,171.500 216.276 C 171.885 216.175,171.570 216.093,170.800 216.093 C 170.030 216.093,169.715 216.175,170.100 216.276 M84.509 218.000 C 84.509 218.990,84.587 219.395,84.682 218.900 C 84.778 218.405,84.778 217.595,84.682 217.100 C 84.587 216.605,84.509 217.010,84.509 218.000 M110.101 218.600 C 110.105 219.480,110.187 219.793,110.283 219.295 C 110.379 218.798,110.375 218.078,110.275 217.695 C 110.175 217.313,110.096 217.720,110.101 218.600 M322.531 222.600 C 322.533 224.140,322.605 224.721,322.692 223.891 C 322.779 223.061,322.777 221.801,322.689 221.091 C 322.600 220.381,322.529 221.060,322.531 222.600 M57.900 221.482 C 58.395 221.578,59.205 221.578,59.700 221.482 C 60.195 221.387,59.790 221.309,58.800 221.309 C 57.810 221.309,57.405 221.387,57.900 221.482 M209.505 221.483 C 210.002 221.579,210.722 221.575,211.105 221.475 C 211.487 221.375,211.080 221.296,210.200 221.301 C 209.320 221.305,209.007 221.387,209.505 221.483 M130.901 223.800 C 130.905 224.680,130.987 224.993,131.083 224.495 C 131.179 223.998,131.175 223.278,131.075 222.895 C 130.975 222.513,130.896 222.920,130.901 223.800 M58.900 233.876 C 59.285 233.976,59.915 233.976,60.300 233.876 C 60.685 233.775,60.370 233.693,59.600 233.693 C 58.830 233.693,58.515 233.775,58.900 233.876 M100.100 233.876 C 100.485 233.976,101.115 233.976,101.500 233.876 C 101.885 233.775,101.570 233.693,100.800 233.693 C 100.030 233.693,99.715 233.775,100.100 233.876 M107.300 233.876 C 107.685 233.976,108.315 233.976,108.700 233.876 C 109.085 233.775,108.770 233.693,108.000 233.693 C 107.230 233.693,106.915 233.775,107.300 233.876 M175.900 233.882 C 176.395 233.978,177.205 233.978,177.700 233.882 C 178.195 233.787,177.790 233.709,176.800 233.709 C 175.810 233.709,175.405 233.787,175.900 233.882 M210.100 233.876 C 210.485 233.976,211.115 233.976,211.500 233.876 C 211.885 233.775,211.570 233.693,210.800 233.693 C 210.030 233.693,209.715 233.775,210.100 233.876 M253.700 233.876 C 254.085 233.976,254.715 233.976,255.100 233.876 C 255.485 233.775,255.170 233.693,254.400 233.693 C 253.630 233.693,253.315 233.775,253.700 233.876 M260.500 233.876 C 260.885 233.976,261.515 233.976,261.900 233.876 C 262.285 233.775,261.970 233.693,261.200 233.693 C 260.430 233.693,260.115 233.775,260.500 233.876 M296.900 233.876 C 297.285 233.976,297.915 233.976,298.300 233.876 C 298.685 233.775,298.370 233.693,297.600 233.693 C 296.830 233.693,296.515 233.775,296.900 233.876 M304.100 233.876 C 304.485 233.976,305.115 233.976,305.500 233.876 C 305.885 233.775,305.570 233.693,304.800 233.693 C 304.030 233.693,303.715 233.775,304.100 233.876 " stroke="none" fill="#afdaaa" fill-rule="evenodd"></path><path id="path3" d="M130.989 195.200 C 130.989 210.270,131.039 216.435,131.100 208.900 C 131.161 201.365,131.161 189.035,131.100 181.500 C 131.039 173.965,130.989 180.130,130.989 195.200 M328.109 195.600 C 328.109 196.590,328.187 196.995,328.282 196.500 C 328.378 196.005,328.378 195.195,328.282 194.700 C 328.187 194.205,328.109 194.610,328.109 195.600 M322.573 210.200 C 322.573 215.700,322.630 218.005,322.699 215.323 C 322.768 212.641,322.768 208.141,322.699 205.323 C 322.630 202.505,322.574 204.700,322.573 210.200 M343.714 202.600 C 343.717 203.700,343.795 204.103,343.887 203.495 C 343.979 202.886,343.977 201.986,343.882 201.495 C 343.787 201.003,343.711 201.500,343.714 202.600 M236.109 206.800 C 236.109 207.790,236.187 208.195,236.282 207.700 C 236.378 207.205,236.378 206.395,236.282 205.900 C 236.187 205.405,236.109 205.810,236.109 206.800 M279.309 207.200 C 279.309 208.190,279.387 208.595,279.482 208.100 C 279.578 207.605,279.578 206.795,279.482 206.300 C 279.387 205.805,279.309 206.210,279.309 207.200 M279.314 211.400 C 279.317 212.500,279.395 212.903,279.487 212.295 C 279.579 211.686,279.577 210.786,279.482 210.295 C 279.387 209.803,279.311 210.300,279.314 211.400 M236.109 212.000 C 236.109 212.990,236.187 213.395,236.282 212.900 C 236.378 212.405,236.378 211.595,236.282 211.100 C 236.187 210.605,236.109 211.010,236.109 212.000 M296.893 217.600 C 296.893 218.370,296.975 218.685,297.076 218.300 C 297.176 217.915,297.176 217.285,297.076 216.900 C 296.975 216.515,296.893 216.830,296.893 217.600 M233.714 218.600 C 233.717 219.700,233.795 220.103,233.887 219.495 C 233.979 218.886,233.977 217.986,233.882 217.495 C 233.787 217.003,233.711 217.500,233.714 218.600 M173.911 221.093 C 174.851 221.178,176.291 221.177,177.111 221.091 C 177.930 221.005,177.160 220.936,175.400 220.937 C 173.640 220.939,172.970 221.009,173.911 221.093 M61.900 233.889 C 62.615 233.978,63.785 233.978,64.500 233.889 C 65.215 233.801,64.630 233.728,63.200 233.728 C 61.770 233.728,61.185 233.801,61.900 233.889 M103.100 233.889 C 103.815 233.978,104.985 233.978,105.700 233.889 C 106.415 233.801,105.830 233.728,104.400 233.728 C 102.970 233.728,102.385 233.801,103.100 233.889 M171.091 233.889 C 171.801 233.977,173.061 233.979,173.891 233.892 C 174.721 233.805,174.140 233.733,172.600 233.731 C 171.060 233.729,170.381 233.800,171.091 233.889 M213.100 233.889 C 213.815 233.978,214.985 233.978,215.700 233.889 C 216.415 233.801,215.830 233.728,214.400 233.728 C 212.970 233.728,212.385 233.801,213.100 233.889 M256.707 233.890 C 257.426 233.979,258.506 233.977,259.107 233.886 C 259.708 233.795,259.120 233.722,257.800 233.724 C 256.480 233.726,255.988 233.801,256.707 233.890 M299.900 233.889 C 300.615 233.978,301.785 233.978,302.500 233.889 C 303.215 233.801,302.630 233.728,301.200 233.728 C 299.770 233.728,299.185 233.801,299.900 233.889 " stroke="none" fill="#94d094" fill-rule="evenodd"></path><path id="path4" d="M135.100 167.098 C 137.135 167.171,140.465 167.171,142.500 167.098 C 144.535 167.025,142.870 166.966,138.800 166.966 C 134.730 166.966,133.065 167.025,135.100 167.098 M146.989 194.400 C 146.989 209.250,147.039 215.325,147.100 207.900 C 147.161 200.475,147.161 188.325,147.100 180.900 C 147.039 173.475,146.989 179.550,146.989 194.400 M63.300 184.676 C 63.685 184.776,64.315 184.776,64.700 184.676 C 65.085 184.575,64.770 184.493,64.000 184.493 C 63.230 184.493,62.915 184.575,63.300 184.676 M172.100 184.676 C 172.485 184.776,173.115 184.776,173.500 184.676 C 173.885 184.575,173.570 184.493,172.800 184.493 C 172.030 184.493,171.715 184.575,172.100 184.676 M214.500 184.676 C 214.885 184.776,215.515 184.776,215.900 184.676 C 216.285 184.575,215.970 184.493,215.200 184.493 C 214.430 184.493,214.115 184.575,214.500 184.676 M301.700 184.676 C 302.085 184.776,302.715 184.776,303.100 184.676 C 303.485 184.575,303.170 184.493,302.400 184.493 C 301.630 184.493,301.315 184.575,301.700 184.676 M45.720 199.600 C 45.720 200.810,45.795 201.305,45.887 200.700 C 45.978 200.095,45.978 199.105,45.887 198.500 C 45.795 197.895,45.720 198.390,45.720 199.600 M100.300 197.882 C 100.795 197.978,101.605 197.978,102.100 197.882 C 102.595 197.787,102.190 197.709,101.200 197.709 C 100.210 197.709,99.805 197.787,100.300 197.882 M297.100 197.882 C 297.595 197.978,298.405 197.978,298.900 197.882 C 299.395 197.787,298.990 197.709,298.000 197.709 C 297.010 197.709,296.605 197.787,297.100 197.882 M196.909 199.600 C 196.909 200.590,196.987 200.995,197.082 200.500 C 197.178 200.005,197.178 199.195,197.082 198.700 C 196.987 198.205,196.909 198.610,196.909 199.600 M279.720 209.200 C 279.720 210.410,279.795 210.905,279.887 210.300 C 279.978 209.695,279.978 208.705,279.887 208.100 C 279.795 207.495,279.720 207.990,279.720 209.200 M110.128 214.800 C 110.128 216.230,110.201 216.815,110.289 216.100 C 110.378 215.385,110.378 214.215,110.289 213.500 C 110.201 212.785,110.128 213.370,110.128 214.800 M281.309 218.000 C 281.309 218.990,281.387 219.395,281.482 218.900 C 281.578 218.405,281.578 217.595,281.482 217.100 C 281.387 216.605,281.309 217.010,281.309 218.000 M306.893 218.800 C 306.893 219.570,306.975 219.885,307.076 219.500 C 307.176 219.115,307.176 218.485,307.076 218.100 C 306.975 217.715,306.893 218.030,306.893 218.800 M104.905 221.487 C 105.514 221.579,106.414 221.577,106.905 221.482 C 107.397 221.387,106.900 221.311,105.800 221.314 C 104.700 221.317,104.297 221.395,104.905 221.487 M301.705 221.487 C 302.314 221.579,303.214 221.577,303.705 221.482 C 304.197 221.387,303.700 221.311,302.600 221.314 C 301.500 221.317,301.097 221.395,301.705 221.487 M125.709 223.600 C 125.709 224.590,125.787 224.995,125.882 224.500 C 125.978 224.005,125.978 223.195,125.882 222.700 C 125.787 222.205,125.709 222.610,125.709 223.600 M273.775 229.300 L 272.600 230.600 273.900 229.425 C 274.615 228.779,275.200 228.194,275.200 228.125 C 275.200 227.816,274.870 228.088,273.775 229.300 " stroke="none" fill="#c4e4c4" fill-rule="evenodd"></path><path id="path5" d="M130.589 194.800 C 130.589 209.650,130.639 215.725,130.700 208.300 C 130.761 200.875,130.761 188.725,130.700 181.300 C 130.639 173.875,130.589 179.950,130.589 194.800 M65.700 184.676 C 66.085 184.776,66.715 184.776,67.100 184.676 C 67.485 184.575,67.170 184.493,66.400 184.493 C 65.630 184.493,65.315 184.575,65.700 184.676 M102.500 184.676 C 102.885 184.776,103.515 184.776,103.900 184.676 C 104.285 184.575,103.970 184.493,103.200 184.493 C 102.430 184.493,102.115 184.575,102.500 184.676 M216.900 184.676 C 217.285 184.776,217.915 184.776,218.300 184.676 C 218.685 184.575,218.370 184.493,217.600 184.493 C 216.830 184.493,216.515 184.575,216.900 184.676 M299.300 184.676 C 299.685 184.776,300.315 184.776,300.700 184.676 C 301.085 184.575,300.770 184.493,300.000 184.493 C 299.230 184.493,298.915 184.575,299.300 184.676 M103.505 197.883 C 104.002 197.979,104.722 197.975,105.105 197.875 C 105.487 197.775,105.080 197.696,104.200 197.701 C 103.320 197.705,103.007 197.787,103.505 197.883 M300.300 197.882 C 300.795 197.978,301.605 197.978,302.100 197.882 C 302.595 197.787,302.190 197.709,301.200 197.709 C 300.210 197.709,299.805 197.787,300.300 197.882 M322.972 210.200 C 322.972 215.260,323.029 217.275,323.099 214.677 C 323.169 212.080,323.168 207.940,323.098 205.477 C 323.028 203.015,322.971 205.140,322.972 210.200 M306.909 216.000 C 306.909 216.990,306.987 217.395,307.082 216.900 C 307.178 216.405,307.178 215.595,307.082 215.100 C 306.987 214.605,306.909 215.010,306.909 216.000 M257.105 220.683 C 257.602 220.779,258.322 220.775,258.705 220.675 C 259.087 220.575,258.680 220.496,257.800 220.501 C 256.920 220.505,256.607 220.587,257.105 220.683 M62.100 234.287 C 62.705 234.378,63.695 234.378,64.300 234.287 C 64.905 234.195,64.410 234.120,63.200 234.120 C 61.990 234.120,61.495 234.195,62.100 234.287 M103.107 234.290 C 103.826 234.379,104.906 234.377,105.507 234.286 C 106.108 234.195,105.520 234.122,104.200 234.124 C 102.880 234.126,102.388 234.201,103.107 234.290 M171.100 234.289 C 171.815 234.378,172.985 234.378,173.700 234.289 C 174.415 234.201,173.830 234.128,172.400 234.128 C 170.970 234.128,170.385 234.201,171.100 234.289 M213.300 234.287 C 213.905 234.378,214.895 234.378,215.500 234.287 C 216.105 234.195,215.610 234.120,214.400 234.120 C 213.190 234.120,212.695 234.195,213.300 234.287 M256.707 234.290 C 257.426 234.379,258.506 234.377,259.107 234.286 C 259.708 234.195,259.120 234.122,257.800 234.124 C 256.480 234.126,255.988 234.201,256.707 234.290 M300.100 234.287 C 300.705 234.378,301.695 234.378,302.300 234.287 C 302.905 234.195,302.410 234.120,301.200 234.120 C 299.990 234.120,299.495 234.195,300.100 234.287 " stroke="none" fill="#cce4c7" fill-rule="evenodd"></path><path id="path6" d="M131.200 167.500 C 131.200 167.665,134.575 167.800,138.700 167.800 L 146.200 167.800 146.400 196.067 C 146.510 211.614,146.690 224.424,146.800 224.534 C 147.066 224.800,146.864 169.256,146.594 168.100 C 146.383 167.190,131.200 166.599,131.200 167.500 M62.713 185.095 C 63.876 185.176,65.676 185.176,66.713 185.093 C 67.751 185.011,66.800 184.945,64.600 184.946 C 62.400 184.947,61.551 185.014,62.713 185.095 M99.200 185.205 C 97.990 185.356,99.610 185.392,102.800 185.285 C 105.990 185.177,108.675 185.024,108.767 184.945 C 109.042 184.706,101.568 184.909,99.200 185.205 M167.800 185.195 C 166.920 185.350,168.360 185.390,171.000 185.283 C 173.640 185.176,175.875 185.024,175.967 184.945 C 176.257 184.693,169.470 184.901,167.800 185.195 M213.913 185.095 C 215.076 185.176,216.876 185.176,217.913 185.093 C 218.951 185.011,218.000 184.945,215.800 184.946 C 213.600 184.947,212.751 185.014,213.913 185.095 M256.112 185.095 C 257.164 185.177,258.784 185.176,259.712 185.092 C 260.640 185.008,259.780 184.941,257.800 184.942 C 255.820 184.943,255.060 185.012,256.112 185.095 M298.433 184.945 C 298.525 185.025,300.940 185.178,303.800 185.285 C 306.873 185.400,308.264 185.353,307.200 185.170 C 305.396 184.859,298.120 184.672,298.433 184.945 M348.000 185.073 C 352.444 185.276,353.935 185.580,354.114 186.321 C 354.235 186.819,354.268 186.792,354.239 186.216 C 354.187 185.169,352.940 184.872,348.800 184.917 C 345.998 184.948,345.857 184.975,348.000 185.073 M58.500 185.476 C 58.885 185.576,59.515 185.576,59.900 185.476 C 60.285 185.375,59.970 185.293,59.200 185.293 C 58.430 185.293,58.115 185.375,58.500 185.476 M69.705 185.487 C 70.314 185.579,71.214 185.577,71.705 185.482 C 72.197 185.387,71.700 185.311,70.600 185.314 C 69.500 185.317,69.097 185.395,69.705 185.487 M109.700 185.476 C 110.085 185.576,110.715 185.576,111.100 185.476 C 111.485 185.375,111.170 185.293,110.400 185.293 C 109.630 185.293,109.315 185.375,109.700 185.476 M176.900 185.476 C 177.285 185.576,177.915 185.576,178.300 185.476 C 178.685 185.375,178.370 185.293,177.600 185.293 C 176.830 185.293,176.515 185.375,176.900 185.476 M209.700 185.476 C 210.085 185.576,210.715 185.576,211.100 185.476 C 211.485 185.375,211.170 185.293,210.400 185.293 C 209.630 185.293,209.315 185.375,209.700 185.476 M220.905 185.487 C 221.514 185.579,222.414 185.577,222.905 185.482 C 223.397 185.387,222.900 185.311,221.800 185.314 C 220.700 185.317,220.297 185.395,220.905 185.487 M252.100 185.476 C 252.485 185.576,253.115 185.576,253.500 185.476 C 253.885 185.375,253.570 185.293,252.800 185.293 C 252.030 185.293,251.715 185.375,252.100 185.476 M262.100 185.476 C 262.485 185.576,263.115 185.576,263.500 185.476 C 263.885 185.375,263.570 185.293,262.800 185.293 C 262.030 185.293,261.715 185.375,262.100 185.476 M294.900 185.487 C 295.505 185.578,296.495 185.578,297.100 185.487 C 297.705 185.395,297.210 185.320,296.000 185.320 C 294.790 185.320,294.295 185.395,294.900 185.487 M342.700 185.482 C 343.195 185.578,344.005 185.578,344.500 185.482 C 344.995 185.387,344.590 185.309,343.600 185.309 C 342.610 185.309,342.205 185.387,342.700 185.482 M54.277 186.389 C 51.066 187.643,47.187 191.477,47.204 193.378 C 47.206 193.610,47.731 192.888,48.370 191.773 C 49.832 189.224,51.879 187.647,55.200 186.510 C 56.630 186.021,57.440 185.624,57.000 185.629 C 56.560 185.634,55.335 185.976,54.277 186.389 M73.633 185.749 C 73.725 185.831,74.700 186.001,75.800 186.128 C 77.149 186.284,77.474 186.249,76.800 186.020 C 75.801 185.680,73.318 185.468,73.633 185.749 M91.800 186.015 C 91.044 186.218,91.562 186.254,93.200 186.115 C 94.630 185.993,95.875 185.828,95.967 185.747 C 96.270 185.480,93.022 185.689,91.800 186.015 M163.600 186.018 C 163.162 186.315,163.324 186.352,164.200 186.156 C 165.671 185.827,165.990 185.598,164.967 185.606 C 164.545 185.609,163.930 185.795,163.600 186.018 M180.400 186.000 C 181.768 186.438,182.819 186.438,181.800 186.000 C 181.360 185.811,180.640 185.662,180.200 185.668 C 179.557 185.677,179.596 185.743,180.400 186.000 M206.129 186.130 C 204.142 186.864,204.068 187.261,206.036 186.629 C 209.072 185.655,209.054 185.663,208.200 185.662 C 207.760 185.661,206.828 185.872,206.129 186.130 M224.833 185.749 C 224.925 185.831,225.900 186.001,227.000 186.128 C 228.349 186.284,228.674 186.249,228.000 186.020 C 227.001 185.680,224.518 185.468,224.833 185.749 M248.600 186.000 C 247.581 186.438,248.632 186.438,250.000 186.000 C 250.804 185.743,250.843 185.677,250.200 185.668 C 249.760 185.662,249.040 185.811,248.600 186.000 M265.600 186.000 C 266.968 186.438,268.019 186.438,267.000 186.000 C 266.560 185.811,265.840 185.662,265.400 185.668 C 264.757 185.677,264.796 185.743,265.600 186.000 M290.705 185.883 C 291.202 185.979,291.922 185.975,292.305 185.875 C 292.687 185.775,292.280 185.696,291.400 185.701 C 290.520 185.705,290.207 185.787,290.705 185.883 M310.400 186.000 C 311.768 186.438,312.819 186.438,311.800 186.000 C 311.360 185.811,310.640 185.662,310.200 185.668 C 309.557 185.677,309.596 185.743,310.400 186.000 M338.600 186.019 C 338.042 186.271,338.285 186.307,339.400 186.138 C 340.280 186.004,341.075 185.828,341.167 185.747 C 341.510 185.444,339.368 185.671,338.600 186.019 M79.200 186.800 C 80.568 187.238,81.619 187.238,80.600 186.800 C 80.160 186.611,79.440 186.462,79.000 186.468 C 78.357 186.477,78.396 186.543,79.200 186.800 M87.100 186.676 C 86.715 186.776,86.400 187.036,86.400 187.253 C 86.400 187.470,86.619 187.512,86.886 187.347 C 87.154 187.181,88.009 186.921,88.786 186.769 C 90.114 186.509,90.127 186.492,89.000 186.492 C 88.340 186.493,87.485 186.575,87.100 186.676 M117.189 187.229 C 119.614 188.329,121.425 189.765,122.827 191.701 C 123.472 192.592,124.000 193.132,124.000 192.903 C 124.000 191.401,117.744 186.377,115.913 186.409 C 115.631 186.414,116.205 186.783,117.189 187.229 M160.200 187.261 C 158.467 188.155,155.401 190.912,154.709 192.200 C 154.472 192.640,155.123 192.065,156.156 190.923 C 157.289 189.669,159.002 188.362,160.480 187.623 C 161.826 186.950,162.674 186.408,162.364 186.418 C 162.054 186.427,161.080 186.807,160.200 187.261 M230.400 186.800 C 231.768 187.238,232.819 187.238,231.800 186.800 C 231.360 186.611,230.640 186.462,230.200 186.468 C 229.557 186.477,229.596 186.543,230.400 186.800 M334.475 187.073 C 333.526 187.409,332.821 187.754,332.907 187.840 C 332.993 187.927,334.040 187.651,335.232 187.228 C 336.424 186.805,337.130 186.460,336.800 186.461 C 336.470 186.462,335.424 186.738,334.475 187.073 M283.341 187.410 C 283.212 187.745,283.294 189.410,283.522 191.110 L 283.937 194.200 283.723 190.852 C 283.558 188.278,283.634 187.424,284.054 187.158 C 284.471 186.894,284.479 186.811,284.087 186.806 C 283.806 186.803,283.470 187.074,283.341 187.410 M81.709 188.800 C 81.709 189.790,81.787 190.195,81.882 189.700 C 81.978 189.205,81.978 188.395,81.882 187.900 C 81.787 187.405,81.709 187.810,81.709 188.800 M184.833 187.316 C 184.925 187.380,185.675 187.929,186.500 188.537 C 187.325 189.144,187.998 189.497,187.995 189.320 C 187.990 188.987,185.415 187.200,184.939 187.200 C 184.789 187.200,184.742 187.252,184.833 187.316 M201.721 188.701 C 200.109 190.140,198.401 192.561,198.405 193.400 C 198.406 193.620,198.949 192.855,199.612 191.701 C 200.296 190.507,201.503 189.146,202.408 188.547 C 203.284 187.968,204.000 187.428,204.000 187.347 C 204.000 186.902,203.213 187.369,201.721 188.701 M243.705 188.125 C 242.993 188.606,242.408 189.144,242.405 189.320 C 242.402 189.497,243.075 189.144,243.900 188.537 C 244.725 187.929,245.475 187.380,245.567 187.316 C 245.658 187.252,245.568 187.211,245.367 187.225 C 245.165 187.239,244.417 187.644,243.705 188.125 M272.035 188.756 C 273.226 189.611,274.721 191.141,275.358 192.156 C 276.572 194.089,277.158 194.639,276.364 193.100 C 275.425 191.279,273.932 189.591,272.216 188.411 C 269.644 186.641,269.493 186.929,272.035 188.756 M315.378 187.694 C 317.286 188.934,319.937 191.729,320.600 193.200 C 320.999 194.085,321.400 194.734,321.490 194.643 C 322.249 193.884,318.146 188.868,315.894 187.801 C 315.182 187.464,314.950 187.416,315.378 187.694 M353.701 189.000 C 353.705 189.880,353.787 190.193,353.883 189.695 C 353.979 189.198,353.975 188.478,353.875 188.095 C 353.775 187.713,353.696 188.120,353.701 189.000 M330.700 188.629 C 329.149 189.470,329.325 189.761,330.900 188.959 C 332.408 188.193,332.675 187.994,332.167 188.016 C 331.965 188.025,331.305 188.301,330.700 188.629 M86.483 190.000 C 86.470 190.770,86.603 192.210,86.780 193.200 C 87.212 195.631,87.246 193.347,86.818 190.600 C 86.564 188.965,86.503 188.855,86.483 190.000 M188.764 190.333 C 188.980 190.736,189.474 191.321,189.863 191.633 C 190.364 192.035,190.304 191.822,189.657 190.900 C 188.669 189.491,188.131 189.149,188.764 190.333 M240.743 190.900 C 240.096 191.822,240.036 192.035,240.537 191.633 C 241.250 191.060,242.187 189.600,241.841 189.600 C 241.739 189.600,241.244 190.185,240.743 190.900 M328.534 193.600 C 328.534 195.250,328.605 195.925,328.691 195.100 C 328.778 194.275,328.778 192.925,328.691 192.100 C 328.605 191.275,328.534 191.950,328.534 193.600 M81.029 194.029 C 80.876 195.379,80.833 196.566,80.933 196.667 C 81.034 196.767,81.244 195.747,81.400 194.400 C 81.556 193.053,81.599 191.866,81.495 191.762 C 81.391 191.658,81.181 192.678,81.029 194.029 M232.229 194.429 C 232.076 195.779,232.033 196.966,232.133 197.067 C 232.234 197.167,232.444 196.147,232.600 194.800 C 232.756 193.453,232.799 192.266,232.695 192.162 C 232.591 192.058,232.381 193.078,232.229 194.429 M353.309 193.600 C 353.309 194.590,353.387 194.995,353.482 194.500 C 353.578 194.005,353.578 193.195,353.482 192.700 C 353.387 192.205,353.309 192.610,353.309 193.600 M191.078 193.795 C 191.444 194.562,191.814 195.119,191.901 195.032 C 192.084 194.849,190.870 192.400,190.596 192.400 C 190.495 192.400,190.712 193.028,191.078 193.795 M238.981 193.637 C 238.629 194.318,238.412 194.945,238.499 195.032 C 238.586 195.119,238.956 194.562,239.322 193.795 C 240.144 192.070,239.859 191.938,238.981 193.637 M46.649 194.615 C 46.512 194.973,46.418 195.656,46.441 196.133 C 46.467 196.681,46.603 196.486,46.810 195.603 C 47.160 194.116,47.065 193.533,46.649 194.615 M197.856 194.884 C 197.721 195.388,197.627 196.160,197.646 196.600 C 197.665 197.040,197.845 196.698,198.046 195.840 C 198.436 194.178,198.270 193.340,197.856 194.884 M284.000 196.576 C 284.000 197.333,284.138 198.038,284.307 198.143 C 284.476 198.247,284.548 197.628,284.465 196.766 C 284.281 194.832,284.000 194.718,284.000 196.576 M321.881 197.200 C 322.006 198.410,322.174 199.475,322.254 199.567 C 322.535 199.887,322.317 196.991,321.987 196.000 C 321.771 195.354,321.734 195.780,321.881 197.200 M192.244 196.600 C 192.573 198.071,192.802 198.390,192.794 197.367 C 192.791 196.945,192.605 196.330,192.382 196.000 C 192.085 195.562,192.048 195.724,192.244 196.600 M87.200 197.200 C 87.200 197.860,87.349 198.400,87.531 198.400 C 87.713 198.400,87.782 197.860,87.685 197.200 C 87.588 196.540,87.440 196.000,87.355 196.000 C 87.270 196.000,87.200 196.540,87.200 197.200 M66.691 196.689 C 67.401 196.777,68.661 196.779,69.491 196.692 C 70.321 196.605,69.740 196.533,68.200 196.531 C 66.660 196.529,65.981 196.600,66.691 196.689 M217.891 196.689 C 218.601 196.777,219.861 196.779,220.691 196.692 C 221.521 196.605,220.940 196.533,219.400 196.531 C 217.860 196.529,217.181 196.600,217.891 196.689 M277.656 196.800 C 277.656 197.130,277.811 197.760,278.000 198.200 C 278.217 198.704,278.344 198.778,278.344 198.400 C 278.344 198.070,278.189 197.440,278.000 197.000 C 277.783 196.496,277.656 196.422,277.656 196.800 M62.600 197.278 C 61.555 197.870,61.205 198.420,61.246 199.400 C 61.273 200.037,61.335 199.997,61.551 199.200 C 61.711 198.614,62.398 197.910,63.212 197.501 C 63.975 197.116,64.330 196.806,64.000 196.813 C 63.670 196.819,63.040 197.028,62.600 197.278 M73.800 197.223 C 74.680 197.405,75.850 197.544,76.400 197.531 C 77.041 197.516,76.826 197.389,75.800 197.177 C 74.920 196.995,73.750 196.856,73.200 196.869 C 72.559 196.884,72.774 197.011,73.800 197.223 M152.200 198.000 C 152.048 198.691,152.007 199.341,152.109 199.442 C 152.211 199.544,152.409 199.053,152.550 198.350 C 152.883 196.683,152.560 196.360,152.200 198.000 M171.000 197.000 C 171.961 197.328,175.625 197.462,175.134 197.151 C 174.840 196.965,173.700 196.824,172.600 196.838 C 171.500 196.852,170.780 196.925,171.000 197.000 M213.725 197.500 C 213.306 197.885,213.160 198.072,213.403 197.916 C 213.645 197.760,214.283 197.456,214.822 197.241 C 215.440 196.994,215.559 196.841,215.144 196.825 C 214.784 196.811,214.145 197.115,213.725 197.500 M224.100 197.076 C 224.485 197.176,225.115 197.176,225.500 197.076 C 225.885 196.975,225.570 196.893,224.800 196.893 C 224.030 196.893,223.715 196.975,224.100 197.076 M100.100 197.497 C 101.585 197.574,104.015 197.574,105.500 197.497 C 106.985 197.420,105.770 197.357,102.800 197.357 C 99.830 197.357,98.615 197.420,100.100 197.497 M167.760 198.560 C 167.012 199.308,166.401 200.163,166.401 200.460 C 166.402 200.757,166.766 200.405,167.209 199.677 C 167.653 198.950,168.597 198.102,169.308 197.793 C 170.138 197.432,170.335 197.226,169.860 197.216 C 169.453 197.207,168.508 197.812,167.760 198.560 M297.317 197.497 C 298.811 197.574,301.151 197.574,302.517 197.496 C 303.882 197.418,302.660 197.355,299.800 197.355 C 296.940 197.356,295.822 197.420,297.317 197.497 M328.094 214.651 C 328.016 229.261,328.095 232.381,328.552 232.760 C 328.934 233.077,331.320 233.185,336.252 233.109 L 343.400 233.000 343.407 217.000 L 343.414 201.000 343.302 216.909 L 343.191 232.818 335.895 232.709 L 328.600 232.600 328.394 214.800 L 328.187 197.000 328.094 214.651 M93.500 197.882 C 93.995 197.978,94.805 197.978,95.300 197.882 C 95.795 197.787,95.390 197.709,94.400 197.709 C 93.410 197.709,93.005 197.787,93.500 197.882 M109.200 198.468 C 110.202 199.445,110.710 199.625,110.218 198.829 C 110.073 198.595,109.560 198.199,109.078 197.949 C 108.283 197.536,108.294 197.585,109.200 198.468 M125.295 211.850 C 125.172 230.512,125.652 228.930,119.405 231.262 C 118.288 231.678,117.931 231.913,118.600 231.790 C 121.307 231.296,124.965 229.075,125.297 227.725 C 125.469 227.023,125.560 219.913,125.500 211.925 L 125.390 197.400 125.295 211.850 M176.919 198.777 C 177.514 199.483,178.000 200.258,178.000 200.497 C 178.000 200.737,178.097 200.837,178.215 200.718 C 178.584 200.349,177.584 198.583,176.691 198.025 C 175.983 197.583,176.022 197.710,176.919 198.777 M260.400 198.035 C 260.950 198.247,261.821 198.910,262.336 199.510 C 263.071 200.367,263.177 200.412,262.832 199.721 C 262.307 198.666,260.858 197.590,260.011 197.625 C 259.675 197.639,259.850 197.824,260.400 198.035 M288.000 198.000 C 286.375 198.253,286.336 198.282,287.600 198.305 C 288.370 198.319,289.900 198.190,291.000 198.018 C 292.892 197.724,292.913 197.707,291.400 197.714 C 290.520 197.717,288.990 197.846,288.000 198.000 M345.256 198.059 C 344.517 198.272,343.983 198.517,344.070 198.603 C 344.157 198.690,345.121 198.516,346.214 198.216 C 347.306 197.917,347.840 197.672,347.400 197.672 C 346.960 197.672,345.995 197.846,345.256 198.059 M46.109 199.600 C 46.109 200.590,46.187 200.995,46.282 200.500 C 46.378 200.005,46.378 199.195,46.282 198.700 C 46.187 198.205,46.109 198.610,46.109 199.600 M89.900 198.282 C 90.395 198.378,91.205 198.378,91.700 198.282 C 92.195 198.187,91.790 198.109,90.800 198.109 C 89.810 198.109,89.405 198.187,89.900 198.282 M237.000 199.600 C 236.846 200.510,236.804 201.338,236.907 201.440 C 237.010 201.543,237.213 200.877,237.360 199.960 C 237.507 199.043,237.548 198.215,237.453 198.120 C 237.358 198.024,237.154 198.690,237.000 199.600 M193.081 200.400 C 193.206 201.610,193.374 202.675,193.454 202.767 C 193.735 203.087,193.517 200.191,193.187 199.200 C 192.971 198.554,192.934 198.980,193.081 200.400 M252.796 199.700 C 252.360 200.415,252.009 201.270,252.017 201.600 C 252.025 201.930,252.299 201.582,252.627 200.828 C 252.954 200.073,253.419 199.218,253.660 198.928 C 253.901 198.637,253.983 198.400,253.843 198.400 C 253.703 198.400,253.232 198.985,252.796 199.700 M212.416 199.126 C 212.378 200.395,215.171 202.962,215.850 202.283 C 215.947 202.187,215.458 201.873,214.765 201.585 C 214.022 201.278,213.284 200.557,212.968 199.832 C 212.673 199.154,212.424 198.837,212.416 199.126 M278.691 202.200 C 278.811 203.740,278.975 205.075,279.055 205.167 C 279.322 205.473,279.109 201.816,278.789 200.600 C 278.598 199.872,278.559 200.502,278.691 202.200 M307.115 200.284 C 306.943 200.938,306.517 201.185,305.344 201.306 L 303.800 201.466 305.513 201.533 C 307.234 201.600,307.890 201.071,307.508 199.924 C 307.415 199.644,307.240 199.805,307.115 200.284 M110.271 200.559 C 110.134 200.917,109.362 201.213,108.322 201.306 L 106.600 201.460 108.457 201.530 C 110.136 201.593,111.351 200.818,110.659 200.125 C 110.571 200.037,110.396 200.232,110.271 200.559 M61.821 200.834 C 62.095 201.277,64.416 202.518,64.609 202.324 C 64.684 202.250,64.035 201.800,63.168 201.325 C 62.300 200.850,61.694 200.629,61.821 200.834 M263.472 202.600 C 263.599 203.700,263.769 204.675,263.851 204.767 C 264.132 205.082,263.920 202.599,263.580 201.600 C 263.351 200.926,263.316 201.251,263.472 202.600 M165.814 203.048 C 165.661 204.065,165.686 205.045,165.868 205.227 C 166.051 205.409,166.235 204.577,166.277 203.379 C 166.371 200.713,166.184 200.580,165.814 203.048 M100.200 202.011 C 99.472 202.202,100.102 202.241,101.800 202.109 C 103.340 201.989,104.675 201.825,104.767 201.745 C 105.073 201.478,101.416 201.691,100.200 202.011 M178.464 202.913 C 178.389 204.688,178.397 204.684,174.000 205.178 L 170.600 205.560 174.195 205.370 C 178.288 205.154,178.940 204.776,178.694 202.756 L 178.528 201.400 178.464 202.913 M299.305 201.887 C 299.914 201.979,300.814 201.977,301.305 201.882 C 301.797 201.787,301.300 201.711,300.200 201.714 C 299.100 201.717,298.697 201.795,299.305 201.887 M197.668 202.600 C 197.662 203.040,197.811 203.760,198.000 204.200 C 198.438 205.219,198.438 204.168,198.000 202.800 C 197.743 201.996,197.677 201.957,197.668 202.600 M46.406 203.033 C 46.409 203.455,46.595 204.070,46.818 204.400 C 47.115 204.838,47.152 204.676,46.956 203.800 C 46.627 202.329,46.398 202.010,46.406 203.033 M68.371 203.626 C 70.224 204.268,71.811 204.723,71.896 204.637 C 72.078 204.456,65.985 202.386,65.399 202.430 C 65.179 202.447,66.517 202.985,68.371 203.626 M96.200 202.800 C 95.181 203.238,96.232 203.238,97.600 202.800 C 98.404 202.543,98.443 202.477,97.800 202.468 C 97.360 202.462,96.640 202.611,96.200 202.800 M151.328 204.800 C 151.328 206.230,151.401 206.815,151.489 206.100 C 151.578 205.385,151.578 204.215,151.489 203.500 C 151.401 202.785,151.328 203.370,151.328 204.800 M217.000 202.800 C 217.440 202.989,218.070 203.144,218.400 203.144 C 218.778 203.144,218.704 203.017,218.200 202.800 C 217.760 202.611,217.130 202.456,216.800 202.456 C 216.422 202.456,216.496 202.583,217.000 202.800 M293.000 202.800 C 291.981 203.238,293.032 203.238,294.400 202.800 C 295.204 202.543,295.243 202.477,294.600 202.468 C 294.160 202.462,293.440 202.611,293.000 202.800 M236.528 205.200 C 236.528 206.630,236.601 207.215,236.689 206.500 C 236.778 205.785,236.778 204.615,236.689 203.900 C 236.601 203.185,236.528 203.770,236.528 205.200 M251.734 205.600 C 251.734 207.250,251.805 207.925,251.891 207.100 C 251.978 206.275,251.978 204.925,251.891 204.100 C 251.805 203.275,251.734 203.950,251.734 205.600 M93.200 203.800 C 91.894 204.547,92.351 204.555,94.054 203.816 C 94.794 203.494,95.130 203.231,94.800 203.230 C 94.470 203.229,93.750 203.486,93.200 203.800 M288.200 204.757 C 287.100 205.390,285.840 206.325,285.400 206.836 C 284.799 207.535,284.998 207.460,286.200 206.537 C 287.080 205.861,288.520 204.932,289.400 204.472 C 290.280 204.012,290.820 203.629,290.600 203.621 C 290.380 203.614,289.300 204.125,288.200 204.757 M193.750 208.600 C 193.751 211.020,193.816 211.958,193.896 210.685 C 193.976 209.412,193.975 207.432,193.894 206.285 C 193.814 205.138,193.749 206.180,193.750 208.600 M47.218 205.400 C 47.169 206.732,50.620 210.502,53.230 211.969 C 55.349 213.160,55.238 212.735,53.100 211.471 C 51.134 210.308,48.770 207.930,47.862 206.200 C 47.515 205.540,47.225 205.180,47.218 205.400 M75.400 206.268 C 76.060 206.617,77.410 207.546,78.400 208.332 C 79.502 209.206,79.890 209.395,79.400 208.820 C 78.498 207.759,75.265 205.592,74.622 205.616 C 74.390 205.625,74.740 205.918,75.400 206.268 M88.034 207.456 C 87.135 208.477,86.400 209.507,86.400 209.745 C 86.400 209.983,86.697 209.733,87.060 209.189 C 87.424 208.645,88.269 207.615,88.939 206.900 C 89.609 206.185,90.047 205.600,89.912 205.600 C 89.778 205.600,88.933 206.435,88.034 207.456 M227.458 206.788 C 228.589 207.437,230.093 208.650,230.799 209.484 C 231.505 210.318,231.900 210.640,231.676 210.200 C 230.905 208.685,226.958 205.599,225.800 205.605 C 225.580 205.606,226.326 206.139,227.458 206.788 M199.519 207.425 C 200.105 208.551,203.231 211.389,204.754 212.176 C 206.617 213.140,206.256 212.626,204.240 211.444 C 203.271 210.877,201.716 209.555,200.784 208.506 C 199.852 207.458,199.282 206.971,199.519 207.425 M264.101 209.400 C 264.105 210.280,264.187 210.593,264.283 210.095 C 264.379 209.598,264.375 208.878,264.275 208.495 C 264.175 208.113,264.096 208.520,264.101 209.400 M283.596 209.300 C 283.160 210.015,282.802 210.765,282.801 210.967 C 282.800 211.423,282.856 211.348,283.914 209.500 C 284.966 207.663,284.697 207.494,283.596 209.300 M251.734 213.200 C 251.734 214.850,251.805 215.525,251.891 214.700 C 251.978 213.875,251.978 212.525,251.891 211.700 C 251.805 210.875,251.734 211.550,251.734 213.200 M105.600 211.617 C 104.735 211.809,105.346 211.846,107.200 211.712 C 108.850 211.593,110.275 211.429,110.367 211.348 C 110.658 211.090,107.057 211.293,105.600 211.617 M232.612 212.834 C 232.935 213.751,233.221 214.973,233.246 215.550 C 233.280 216.310,233.346 216.393,233.485 215.852 C 233.702 215.007,232.866 211.688,232.357 211.374 C 232.174 211.260,232.289 211.918,232.612 212.834 M236.528 213.600 C 236.528 215.030,236.601 215.615,236.689 214.900 C 236.778 214.185,236.778 213.015,236.689 212.300 C 236.601 211.585,236.528 212.170,236.528 213.600 M302.600 211.597 C 301.860 211.794,302.507 211.835,304.286 211.702 L 307.173 211.488 307.306 215.844 L 307.439 220.200 307.420 215.800 L 307.400 211.400 305.600 211.338 C 304.610 211.304,303.260 211.421,302.600 211.597 M151.247 213.633 C 151.273 214.825,151.433 216.340,151.602 217.000 C 151.776 217.681,151.818 216.815,151.698 215.000 C 151.455 211.299,151.178 210.458,151.247 213.633 M101.865 212.647 C 100.153 213.575,100.822 213.707,102.612 212.794 C 103.468 212.357,103.906 212.007,103.585 212.016 C 103.263 212.025,102.489 212.309,101.865 212.647 M110.546 215.800 C 110.547 218.000,110.614 218.849,110.695 217.687 C 110.776 216.524,110.776 214.724,110.693 213.687 C 110.611 212.649,110.545 213.600,110.546 215.800 M298.160 213.360 C 297.339 214.181,296.814 215.092,296.834 215.660 C 296.866 216.521,296.897 216.505,297.207 215.474 C 297.658 213.970,298.357 213.183,299.800 212.554 C 300.612 212.200,300.761 212.026,300.260 212.016 C 299.853 212.007,298.908 212.612,298.160 213.360 M56.000 213.400 C 56.550 213.714,57.180 213.972,57.400 213.972 C 57.620 213.972,57.350 213.714,56.800 213.400 C 56.250 213.086,55.620 212.828,55.400 212.828 C 55.180 212.828,55.450 213.086,56.000 213.400 M85.056 213.684 C 84.921 214.188,84.839 216.220,84.874 218.200 L 84.936 221.800 85.189 217.400 C 85.459 212.707,85.442 212.243,85.056 213.684 M81.873 214.800 C 82.004 215.790,82.176 216.675,82.256 216.767 C 82.557 217.114,82.328 214.564,81.990 213.800 C 81.753 213.266,81.714 213.598,81.873 214.800 M189.000 214.000 L 187.400 214.286 188.800 214.296 C 189.570 214.301,190.740 214.168,191.400 214.000 C 193.028 213.586,191.313 213.586,189.000 214.000 M278.863 214.800 C 278.823 215.570,278.706 216.920,278.602 217.800 L 278.412 219.400 278.823 217.800 C 279.048 216.920,279.166 215.570,279.084 214.800 L 278.934 213.400 278.863 214.800 M263.598 214.900 C 263.593 216.651,262.722 218.911,261.668 219.905 C 260.747 220.773,260.723 220.847,261.496 220.444 C 262.904 219.709,264.993 214.000,263.854 214.000 C 263.714 214.000,263.599 214.405,263.598 214.900 M184.900 214.676 C 185.285 214.776,185.915 214.776,186.300 214.676 C 186.685 214.575,186.370 214.493,185.600 214.493 C 184.830 214.493,184.515 214.575,184.900 214.676 M181.500 215.082 C 181.995 215.178,182.805 215.178,183.300 215.082 C 183.795 214.987,183.390 214.909,182.400 214.909 C 181.410 214.909,181.005 214.987,181.500 215.082 M62.200 215.600 C 62.640 215.789,63.270 215.944,63.600 215.944 C 63.978 215.944,63.904 215.817,63.400 215.600 C 62.960 215.411,62.330 215.256,62.000 215.256 C 61.622 215.256,61.696 215.383,62.200 215.600 M176.505 215.487 C 177.114 215.579,178.014 215.577,178.505 215.482 C 178.997 215.387,178.500 215.311,177.400 215.314 C 176.300 215.317,175.897 215.395,176.505 215.487 M213.400 215.600 C 213.840 215.789,214.470 215.944,214.800 215.944 C 215.178 215.944,215.104 215.817,214.600 215.600 C 214.160 215.411,213.530 215.256,213.200 215.256 C 212.822 215.256,212.896 215.383,213.400 215.600 M281.734 218.000 C 281.734 219.650,281.805 220.325,281.891 219.500 C 281.978 218.675,281.978 217.325,281.891 216.500 C 281.805 215.675,281.734 216.350,281.734 218.000 M171.500 215.889 C 172.215 215.978,173.385 215.978,174.100 215.889 C 174.815 215.801,174.230 215.728,172.800 215.728 C 171.370 215.728,170.785 215.801,171.500 215.889 M166.667 216.267 C 165.700 217.234,167.771 220.829,169.269 220.784 C 169.561 220.775,169.310 220.502,168.710 220.176 C 166.724 219.099,166.075 216.595,167.700 216.282 C 168.535 216.122,168.540 216.105,167.767 216.054 C 167.308 216.025,166.813 216.120,166.667 216.267 M99.693 217.600 C 99.693 218.370,99.775 218.685,99.876 218.300 C 99.976 217.915,99.976 217.285,99.876 216.900 C 99.775 216.515,99.693 216.830,99.693 217.600 M66.444 217.671 C 67.045 219.077,66.641 220.562,65.509 221.108 C 65.009 221.349,64.825 221.558,65.100 221.573 C 66.731 221.661,67.735 218.838,66.593 217.376 C 66.029 216.653,66.018 216.673,66.444 217.671 M217.629 217.703 C 218.248 219.063,217.844 220.561,216.709 221.108 C 216.209 221.349,216.025 221.558,216.300 221.573 C 217.937 221.662,219.081 218.263,217.778 217.182 C 217.226 216.723,217.209 216.782,217.629 217.703 M252.016 217.120 C 251.987 218.057,253.190 219.967,254.104 220.438 C 254.987 220.892,254.986 220.886,254.057 219.994 C 253.539 219.497,252.871 218.529,252.573 217.845 C 252.275 217.160,252.024 216.834,252.016 217.120 M236.887 218.000 C 236.883 218.550,237.024 219.450,237.200 220.000 C 237.631 221.344,237.631 219.892,237.200 218.200 C 236.926 217.122,236.894 217.102,236.887 218.000 M296.814 219.118 C 296.806 219.403,297.242 220.078,297.782 220.618 C 298.322 221.158,298.997 221.594,299.282 221.586 C 299.567 221.578,299.370 221.333,298.844 221.042 C 298.318 220.750,297.650 220.082,297.358 219.556 C 297.067 219.030,296.822 218.833,296.814 219.118 M100.000 219.556 C 100.000 219.935,101.955 221.799,102.111 221.568 C 102.174 221.476,101.724 220.916,101.112 220.326 C 100.501 219.735,100.000 219.388,100.000 219.556 M277.850 220.850 C 277.709 221.553,277.669 222.202,277.759 222.292 C 277.850 222.383,278.048 221.891,278.200 221.200 C 278.352 220.509,278.393 219.859,278.291 219.758 C 278.189 219.656,277.991 220.147,277.850 220.850 M46.572 220.968 C 46.439 221.501,46.414 222.266,46.518 222.668 C 46.624 223.079,46.728 222.824,46.754 222.087 C 46.788 221.124,47.040 220.678,47.700 220.412 L 48.600 220.051 47.708 220.025 C 47.086 220.008,46.741 220.294,46.572 220.968 M82.059 221.000 C 82.020 221.660,81.896 222.650,81.783 223.200 L 81.577 224.200 82.008 223.214 C 82.244 222.672,82.368 221.682,82.283 221.014 L 82.128 219.800 82.059 221.000 M187.000 220.398 C 185.967 220.590,186.485 220.629,188.463 220.509 C 191.040 220.353,191.558 220.426,191.723 220.969 C 191.880 221.489,191.906 221.477,191.856 220.908 C 191.784 220.102,189.754 219.889,187.000 220.398 M198.080 220.480 C 197.816 220.744,197.626 221.599,197.657 222.380 L 197.714 223.800 197.957 222.200 L 198.200 220.600 200.000 220.669 C 201.428 220.724,201.594 220.671,200.800 220.409 C 199.327 219.924,198.618 219.942,198.080 220.480 M52.600 221.223 C 53.480 221.405,54.740 221.542,55.400 221.527 C 56.300 221.507,56.150 221.420,54.800 221.180 C 52.386 220.750,50.494 220.787,52.600 221.223 M171.400 221.225 C 172.978 221.549,178.290 221.736,177.967 221.456 C 177.875 221.376,176.000 221.218,173.800 221.104 C 171.202 220.969,170.361 221.012,171.400 221.225 M179.700 221.091 C 180.525 221.178,181.875 221.178,182.700 221.091 C 183.525 221.005,182.850 220.934,181.200 220.934 C 179.550 220.934,178.875 221.005,179.700 221.091 M203.800 221.223 C 204.680 221.405,205.940 221.542,206.600 221.527 C 207.500 221.507,207.350 221.420,206.000 221.180 C 203.586 220.750,201.694 220.787,203.800 221.223 M256.291 221.089 C 257.001 221.177,258.261 221.179,259.091 221.092 C 259.921 221.005,259.340 220.933,257.800 220.931 C 256.260 220.929,255.581 221.000,256.291 221.089 M59.100 221.893 C 60.035 221.977,61.565 221.977,62.500 221.893 C 63.435 221.809,62.670 221.740,60.800 221.740 C 58.930 221.740,58.165 221.809,59.100 221.893 M104.291 221.889 C 105.001 221.977,106.261 221.979,107.091 221.892 C 107.921 221.805,107.340 221.733,105.800 221.731 C 104.260 221.729,103.581 221.800,104.291 221.889 M152.800 221.913 C 152.799 224.595,159.408 232.017,161.778 231.996 C 162.010 231.994,161.291 231.471,160.181 230.834 C 157.560 229.331,155.413 226.922,153.964 223.858 C 153.324 222.506,152.800 221.631,152.800 221.913 M210.711 221.893 C 211.651 221.978,213.091 221.977,213.911 221.891 C 214.730 221.805,213.960 221.736,212.200 221.737 C 210.440 221.739,209.770 221.809,210.711 221.893 M301.300 221.891 C 302.125 221.978,303.475 221.978,304.300 221.891 C 305.125 221.805,304.450 221.734,302.800 221.734 C 301.150 221.734,300.475 221.805,301.300 221.891 M192.101 223.800 C 192.105 224.680,192.187 224.993,192.283 224.495 C 192.379 223.998,192.375 223.278,192.275 222.895 C 192.175 222.513,192.096 222.920,192.101 223.800 M322.079 225.169 C 322.023 227.290,321.805 228.374,321.315 228.969 L 320.630 229.800 321.534 228.970 C 322.346 228.224,322.424 227.839,322.298 225.170 L 322.159 222.200 322.079 225.169 M276.397 224.806 C 275.286 227.178,272.752 229.791,270.336 231.055 C 269.381 231.555,268.742 231.972,268.916 231.982 C 271.167 232.111,278.711 224.178,277.495 222.961 C 277.407 222.874,276.913 223.704,276.397 224.806 M131.240 224.833 C 131.262 225.805,131.425 227.050,131.602 227.600 C 131.795 228.200,131.837 227.560,131.706 226.000 C 131.451 222.962,131.182 222.289,131.240 224.833 M238.405 223.822 C 238.396 224.593,240.675 227.781,242.248 229.198 L 243.800 230.596 242.126 228.798 C 241.205 227.809,239.993 226.190,239.431 225.200 C 238.869 224.210,238.407 223.590,238.405 223.822 M197.293 225.600 C 197.293 226.370,197.375 226.685,197.476 226.300 C 197.576 225.915,197.576 225.285,197.476 224.900 C 197.375 224.515,197.293 224.830,197.293 225.600 M282.805 225.055 C 282.787 226.712,288.084 232.010,289.745 231.996 C 289.995 231.994,289.300 231.475,288.200 230.843 C 285.876 229.507,285.237 228.856,283.836 226.400 C 283.272 225.410,282.807 224.805,282.805 225.055 M192.509 227.200 C 192.509 228.190,192.587 228.595,192.682 228.100 C 192.778 227.605,192.778 226.795,192.682 226.300 C 192.587 225.805,192.509 226.210,192.509 227.200 M86.400 226.272 C 86.400 226.520,87.165 227.516,88.100 228.485 C 89.035 229.454,89.332 229.696,88.760 229.023 C 88.189 228.351,87.424 227.355,87.060 226.811 C 86.697 226.267,86.400 226.025,86.400 226.272 M78.333 228.842 C 77.086 230.135,76.377 231.026,76.758 230.823 C 77.479 230.437,80.800 226.974,80.800 226.609 C 80.800 226.290,80.757 226.329,78.333 228.842 M229.533 228.842 C 227.256 231.203,227.645 231.494,229.969 229.169 C 230.996 228.142,232.326 226.280,231.914 226.446 C 231.851 226.471,230.780 227.550,229.533 228.842 M45.701 228.200 C 45.705 229.080,45.787 229.393,45.883 228.895 C 45.979 228.398,45.975 227.678,45.875 227.295 C 45.775 226.913,45.696 227.320,45.701 228.200 M196.893 228.400 C 196.893 229.170,196.975 229.485,197.076 229.100 C 197.176 228.715,197.176 228.085,197.076 227.700 C 196.975 227.315,196.893 227.630,196.893 228.400 M132.032 229.200 C 132.004 229.895,133.851 234.000,134.192 234.000 C 134.318 234.000,134.127 233.432,133.768 232.738 C 133.409 232.043,132.877 230.828,132.586 230.038 C 132.295 229.247,132.045 228.870,132.032 229.200 M192.832 230.672 C 192.811 231.245,192.491 231.604,191.900 231.718 L 191.000 231.891 191.913 231.946 C 192.860 232.002,193.427 231.203,193.069 230.313 C 192.956 230.031,192.849 230.192,192.832 230.672 M90.400 230.608 C 90.400 230.949,94.505 232.796,95.200 232.768 C 95.530 232.755,95.153 232.505,94.362 232.214 C 93.572 231.923,92.357 231.391,91.662 231.032 C 90.968 230.673,90.400 230.482,90.400 230.608 M144.400 231.600 C 143.190 232.239,142.380 232.762,142.600 232.762 C 142.820 232.762,143.990 232.239,145.200 231.600 C 146.410 230.961,147.220 230.438,147.000 230.438 C 146.780 230.438,145.610 230.961,144.400 231.600 M244.000 230.596 C 244.000 230.870,246.449 232.084,246.632 231.901 C 246.719 231.814,246.162 231.444,245.395 231.078 C 244.628 230.712,244.000 230.495,244.000 230.596 M197.376 231.378 C 197.804 231.720,198.434 231.986,198.776 231.968 C 199.315 231.941,199.318 231.907,198.800 231.714 C 198.470 231.592,197.840 231.326,197.400 231.124 C 196.613 230.762,196.612 230.766,197.376 231.378 M224.600 232.034 C 223.500 232.459,223.087 232.713,223.682 232.600 C 225.085 232.333,226.800 231.678,226.800 231.410 C 226.800 231.294,226.755 231.214,226.700 231.231 C 226.645 231.248,225.700 231.609,224.600 232.034 M72.800 232.200 C 72.030 232.497,71.670 232.745,72.000 232.752 C 72.330 232.758,73.140 232.517,73.800 232.214 C 75.345 231.507,74.626 231.497,72.800 232.200 M115.200 232.400 C 114.396 232.657,114.357 232.723,115.000 232.732 C 115.440 232.738,116.160 232.589,116.600 232.400 C 117.619 231.962,116.568 231.962,115.200 232.400 M187.000 232.400 L 185.400 232.686 186.800 232.696 C 187.570 232.701,188.740 232.568,189.400 232.400 C 191.028 231.986,189.313 231.986,187.000 232.400 M200.800 232.400 C 201.350 232.576,202.250 232.717,202.800 232.713 C 203.698 232.706,203.678 232.674,202.600 232.400 C 200.908 231.969,199.456 231.969,200.800 232.400 M54.600 233.218 C 56.180 233.550,60.690 233.735,60.367 233.456 C 60.275 233.376,58.580 233.215,56.600 233.097 C 54.152 232.951,53.512 232.990,54.600 233.218 M67.800 233.200 L 65.800 233.474 67.600 233.497 C 68.590 233.510,69.850 233.376,70.400 233.200 C 71.644 232.801,70.706 232.801,67.800 233.200 M109.400 233.200 L 107.000 233.466 109.200 233.485 C 110.410 233.496,111.940 233.368,112.600 233.200 C 114.138 232.809,112.937 232.809,109.400 233.200 M165.600 233.187 C 166.591 233.517,169.487 233.735,169.167 233.454 C 169.075 233.374,168.010 233.206,166.800 233.081 C 165.380 232.934,164.954 232.971,165.600 233.187 M182.705 233.083 C 183.202 233.179,183.922 233.175,184.305 233.075 C 184.687 232.975,184.280 232.896,183.400 232.901 C 182.520 232.905,182.207 232.987,182.705 233.083 M204.900 233.076 C 205.285 233.176,205.915 233.176,206.300 233.076 C 206.685 232.975,206.370 232.893,205.600 232.893 C 204.830 232.893,204.515 232.975,204.900 233.076 M219.000 233.200 L 217.000 233.474 218.800 233.497 C 219.790 233.510,221.050 233.376,221.600 233.200 C 222.844 232.801,221.906 232.801,219.000 233.200 M250.800 233.193 C 251.788 233.516,255.089 233.735,254.767 233.456 C 254.675 233.376,253.520 233.211,252.200 233.088 C 250.709 232.949,250.179 232.989,250.800 233.193 M294.000 233.193 C 294.988 233.516,298.289 233.735,297.967 233.456 C 297.875 233.376,296.720 233.211,295.400 233.088 C 293.909 232.949,293.379 232.989,294.000 233.193 M306.400 233.200 L 304.200 233.470 306.200 233.487 C 307.300 233.497,308.740 233.368,309.400 233.200 C 310.956 232.804,309.631 232.804,306.400 233.200 M98.700 233.482 C 99.195 233.578,100.005 233.578,100.500 233.482 C 100.995 233.387,100.590 233.309,99.600 233.309 C 98.610 233.309,98.205 233.387,98.700 233.482 M138.800 234.200 C 137.810 234.730,137.180 235.164,137.400 235.164 C 137.620 235.164,138.610 234.730,139.600 234.200 C 140.590 233.670,141.220 233.236,141.000 233.236 C 140.780 233.236,139.790 233.670,138.800 234.200 M177.300 233.491 C 178.125 233.578,179.475 233.578,180.300 233.491 C 181.125 233.405,180.450 233.334,178.800 233.334 C 177.150 233.334,176.475 233.405,177.300 233.491 M208.307 233.490 C 209.026 233.579,210.106 233.577,210.707 233.486 C 211.308 233.395,210.720 233.322,209.400 233.324 C 208.080 233.326,207.588 233.401,208.307 233.490 M261.500 233.482 C 261.995 233.578,262.805 233.578,263.300 233.482 C 263.795 233.387,263.390 233.309,262.400 233.309 C 261.410 233.309,261.005 233.387,261.500 233.482 M134.938 235.073 C 135.343 235.553,135.928 235.849,136.238 235.730 C 136.933 235.464,136.993 235.064,136.300 235.314 C 136.025 235.414,135.440 235.204,135.000 234.848 C 134.211 234.209,134.211 234.213,134.938 235.073 " stroke="none" fill="#94cc8c" fill-rule="evenodd"></path><path id="path7" d="M59.105 184.683 C 59.602 184.779,60.322 184.775,60.705 184.675 C 61.087 184.575,60.680 184.496,59.800 184.501 C 58.920 184.505,58.607 184.587,59.105 184.683 M68.707 184.690 C 69.426 184.779,70.506 184.777,71.107 184.686 C 71.708 184.595,71.120 184.522,69.800 184.524 C 68.480 184.526,67.988 184.601,68.707 184.690 M98.900 184.687 C 99.505 184.778,100.495 184.778,101.100 184.687 C 101.705 184.595,101.210 184.520,100.000 184.520 C 98.790 184.520,98.295 184.595,98.900 184.687 M109.105 184.683 C 109.602 184.779,110.322 184.775,110.705 184.675 C 111.087 184.575,110.680 184.496,109.800 184.501 C 108.920 184.505,108.607 184.587,109.105 184.683 M167.500 184.682 C 167.995 184.778,168.805 184.778,169.300 184.682 C 169.795 184.587,169.390 184.509,168.400 184.509 C 167.410 184.509,167.005 184.587,167.500 184.682 M176.305 184.683 C 176.802 184.779,177.522 184.775,177.905 184.675 C 178.287 184.575,177.880 184.496,177.000 184.501 C 176.120 184.505,175.807 184.587,176.305 184.683 M210.305 184.683 C 210.802 184.779,211.522 184.775,211.905 184.675 C 212.287 184.575,211.880 184.496,211.000 184.501 C 210.120 184.505,209.807 184.587,210.305 184.683 M219.907 184.690 C 220.626 184.779,221.706 184.777,222.307 184.686 C 222.908 184.595,222.320 184.522,221.000 184.524 C 219.680 184.526,219.188 184.601,219.907 184.690 M252.705 184.683 C 253.202 184.779,253.922 184.775,254.305 184.675 C 254.687 184.575,254.280 184.496,253.400 184.501 C 252.520 184.505,252.207 184.587,252.705 184.683 M261.505 184.683 C 262.002 184.779,262.722 184.775,263.105 184.675 C 263.487 184.575,263.080 184.496,262.200 184.501 C 261.320 184.505,261.007 184.587,261.505 184.683 M295.700 184.687 C 296.305 184.778,297.295 184.778,297.900 184.687 C 298.505 184.595,298.010 184.520,296.800 184.520 C 295.590 184.520,295.095 184.595,295.700 184.687 M305.900 184.682 C 306.395 184.778,307.205 184.778,307.700 184.682 C 308.195 184.587,307.790 184.509,306.800 184.509 C 305.810 184.509,305.405 184.587,305.900 184.682 M343.500 184.682 C 343.995 184.778,344.805 184.778,345.300 184.682 C 345.795 184.587,345.390 184.509,344.400 184.509 C 343.410 184.509,343.005 184.587,343.500 184.682 M352.100 184.676 C 352.485 184.776,353.115 184.776,353.500 184.676 C 353.885 184.575,353.570 184.493,352.800 184.493 C 352.030 184.493,351.715 184.575,352.100 184.676 M86.100 186.265 C 85.825 186.376,85.600 186.654,85.600 186.882 C 85.600 187.165,85.760 187.168,86.100 186.892 C 86.375 186.669,86.960 186.398,87.400 186.289 L 88.200 186.093 87.400 186.078 C 86.960 186.070,86.375 186.154,86.100 186.265 M116.833 186.149 C 117.245 186.517,119.600 187.600,119.600 187.421 C 119.600 187.190,117.382 186.000,116.953 186.000 C 116.796 186.000,116.742 186.067,116.833 186.149 M159.900 186.629 C 158.349 187.470,158.525 187.761,160.100 186.959 C 161.608 186.193,161.875 185.994,161.367 186.016 C 161.165 186.025,160.505 186.301,159.900 186.629 M282.554 186.977 C 282.432 187.294,282.403 187.879,282.489 188.277 C 282.587 188.728,282.724 188.512,282.854 187.700 C 283.071 186.338,282.930 185.996,282.554 186.977 M354.509 188.400 C 354.509 189.390,354.587 189.795,354.682 189.300 C 354.778 188.805,354.778 187.995,354.682 187.500 C 354.587 187.005,354.509 187.410,354.509 188.400 M49.055 189.183 C 48.035 190.273,47.200 191.293,47.200 191.450 C 47.200 191.606,47.257 191.658,47.327 191.567 C 47.397 191.475,48.322 190.455,49.382 189.300 C 50.442 188.145,51.219 187.200,51.109 187.200 C 50.999 187.200,50.075 188.092,49.055 189.183 M82.501 188.600 C 82.505 189.480,82.587 189.793,82.683 189.295 C 82.779 188.798,82.775 188.078,82.675 187.695 C 82.575 187.313,82.496 187.720,82.501 188.600 M120.000 187.725 C 120.000 187.824,120.661 188.409,121.468 189.025 C 122.276 189.641,122.811 189.941,122.656 189.691 C 122.340 189.179,120.000 187.447,120.000 187.725 M156.567 189.029 L 155.000 190.458 156.700 189.162 C 158.253 187.978,158.632 187.600,158.267 187.600 C 158.193 187.600,157.428 188.243,156.567 189.029 M200.378 189.100 L 199.000 190.600 200.500 189.222 C 201.325 188.463,202.000 187.788,202.000 187.722 C 202.000 187.416,201.662 187.704,200.378 189.100 M188.800 189.400 C 189.546 190.170,190.247 190.800,190.357 190.800 C 190.467 190.800,189.946 190.170,189.200 189.400 C 188.454 188.630,187.753 188.000,187.643 188.000 C 187.533 188.000,188.054 188.630,188.800 189.400 M233.693 189.200 C 233.693 189.970,233.775 190.285,233.876 189.900 C 233.976 189.515,233.976 188.885,233.876 188.500 C 233.775 188.115,233.693 188.430,233.693 189.200 M241.178 189.500 L 239.800 191.000 241.300 189.622 C 242.696 188.338,242.984 188.000,242.678 188.000 C 242.612 188.000,241.937 188.675,241.178 189.500 M274.200 189.600 C 275.059 190.480,275.852 191.200,275.962 191.200 C 276.072 191.200,275.459 190.480,274.600 189.600 C 273.741 188.720,272.948 188.000,272.838 188.000 C 272.728 188.000,273.341 188.720,274.200 189.600 M318.817 189.404 C 319.578 190.286,320.523 191.456,320.917 192.004 C 321.609 192.965,321.610 192.954,320.924 191.688 C 320.533 190.966,319.588 189.796,318.823 189.088 L 317.434 187.800 318.817 189.404 M282.901 191.800 C 282.905 192.680,282.987 192.993,283.083 192.495 C 283.179 191.998,283.175 191.278,283.075 190.895 C 282.975 190.513,282.896 190.920,282.901 191.800 M327.691 212.076 C 327.641 223.668,327.735 233.236,327.900 233.338 C 328.173 233.507,328.168 218.176,327.890 198.600 C 327.830 194.420,327.741 200.484,327.691 212.076 M86.101 193.000 C 86.105 193.880,86.187 194.193,86.283 193.695 C 86.379 193.198,86.375 192.478,86.275 192.095 C 86.175 191.713,86.096 192.120,86.101 193.000 M81.693 195.200 C 81.693 195.970,81.775 196.285,81.876 195.900 C 81.976 195.515,81.976 194.885,81.876 194.500 C 81.775 194.115,81.693 194.430,81.693 195.200 M232.893 195.600 C 232.893 196.370,232.975 196.685,233.076 196.300 C 233.176 195.915,233.176 195.285,233.076 194.900 C 232.975 194.515,232.893 194.830,232.893 195.600 M353.693 196.000 C 353.693 196.770,353.775 197.085,353.876 196.700 C 353.976 196.315,353.976 195.685,353.876 195.300 C 353.775 194.915,353.693 195.230,353.693 196.000 M66.300 197.493 C 67.235 197.577,68.765 197.577,69.700 197.493 C 70.635 197.409,69.870 197.340,68.000 197.340 C 66.130 197.340,65.365 197.409,66.300 197.493 M217.900 197.493 C 218.835 197.577,220.365 197.577,221.300 197.493 C 222.235 197.409,221.470 197.340,219.600 197.340 C 217.730 197.340,216.965 197.409,217.900 197.493 M73.300 197.876 C 73.685 197.976,74.315 197.976,74.700 197.876 C 75.085 197.775,74.770 197.693,74.000 197.693 C 73.230 197.693,72.915 197.775,73.300 197.876 M171.507 197.890 C 172.226 197.979,173.306 197.977,173.907 197.886 C 174.508 197.795,173.920 197.722,172.600 197.724 C 171.280 197.726,170.788 197.801,171.507 197.890 M224.500 197.876 C 224.885 197.976,225.515 197.976,225.900 197.876 C 226.285 197.775,225.970 197.693,225.200 197.693 C 224.430 197.693,224.115 197.775,224.500 197.876 M62.267 198.267 C 61.731 198.803,62.022 199.895,62.900 200.638 L 63.800 201.400 63.050 200.513 C 62.610 199.993,62.388 199.290,62.512 198.813 C 62.739 197.946,62.692 197.841,62.267 198.267 M97.905 198.283 C 98.402 198.379,99.122 198.375,99.505 198.275 C 99.887 198.175,99.480 198.096,98.600 198.101 C 97.720 198.105,97.407 198.187,97.905 198.283 M257.105 198.283 C 257.602 198.379,258.322 198.375,258.705 198.275 C 259.087 198.175,258.680 198.096,257.800 198.101 C 256.920 198.105,256.607 198.187,257.105 198.283 M294.705 198.283 C 295.202 198.379,295.922 198.375,296.305 198.275 C 296.687 198.175,296.280 198.096,295.400 198.101 C 294.520 198.105,294.207 198.187,294.705 198.283 M322.909 199.600 C 322.909 200.590,322.987 200.995,323.082 200.500 C 323.178 200.005,323.178 199.195,323.082 198.700 C 322.987 198.205,322.909 198.610,322.909 199.600 M349.505 198.283 C 350.002 198.379,350.722 198.375,351.105 198.275 C 351.487 198.175,351.080 198.096,350.200 198.101 C 349.320 198.105,349.007 198.187,349.505 198.283 M93.105 198.683 C 93.602 198.779,94.322 198.775,94.705 198.675 C 95.087 198.575,94.680 198.496,93.800 198.501 C 92.920 198.505,92.607 198.587,93.105 198.683 M253.970 199.500 L 253.000 200.600 254.000 199.751 C 254.550 199.284,255.270 198.803,255.600 198.682 C 256.114 198.495,256.109 198.459,255.570 198.432 C 255.223 198.414,254.503 198.895,253.970 199.500 M289.905 198.683 C 290.402 198.779,291.122 198.775,291.505 198.675 C 291.887 198.575,291.480 198.496,290.600 198.501 C 289.720 198.505,289.407 198.587,289.905 198.683 M213.232 199.238 C 213.214 199.589,213.605 200.219,214.100 200.638 C 214.992 201.394,214.994 201.393,214.352 200.600 C 213.996 200.160,213.605 199.530,213.484 199.200 C 213.297 198.691,213.258 198.696,213.232 199.238 M109.406 199.665 C 109.575 200.109,109.416 200.393,108.929 200.519 C 108.304 200.680,108.296 200.714,108.876 200.754 C 109.770 200.815,110.212 200.051,109.621 199.465 C 109.264 199.111,109.213 199.158,109.406 199.665 M126.177 211.200 C 126.177 217.690,126.232 220.345,126.299 217.100 C 126.366 213.855,126.366 208.545,126.299 205.300 C 126.232 202.055,126.177 204.710,126.177 211.200 M344.183 216.600 C 344.183 225.620,344.235 229.367,344.299 224.927 C 344.364 220.487,344.364 213.107,344.300 208.527 C 344.235 203.947,344.183 207.580,344.183 216.600 M103.700 201.076 C 104.085 201.176,104.715 201.176,105.100 201.076 C 105.485 200.975,105.170 200.893,104.400 200.893 C 103.630 200.893,103.315 200.975,103.700 201.076 M296.900 201.476 C 297.285 201.576,297.915 201.576,298.300 201.476 C 298.685 201.375,298.370 201.293,297.600 201.293 C 296.830 201.293,296.515 201.375,296.900 201.476 M166.561 204.000 C 166.593 204.827,166.808 205.006,167.800 205.037 C 168.881 205.071,168.894 205.059,167.924 204.914 C 167.202 204.806,166.795 204.465,166.686 203.876 C 166.552 203.157,166.530 203.179,166.561 204.000 M235.762 209.400 C 235.762 212.920,235.824 214.306,235.898 212.481 C 235.972 210.656,235.972 207.776,235.897 206.081 C 235.822 204.386,235.761 205.880,235.762 209.400 M279.693 204.400 C 279.693 205.170,279.775 205.485,279.876 205.100 C 279.976 204.715,279.976 204.085,279.876 203.700 C 279.775 203.315,279.693 203.630,279.693 204.400 M89.687 205.100 C 88.730 206.035,88.714 206.081,89.581 205.406 C 91.288 204.076,91.369 204.000,91.086 204.000 C 90.936 204.000,90.306 204.495,89.687 205.100 M150.554 209.200 C 150.554 211.950,150.618 213.075,150.696 211.700 C 150.774 210.325,150.774 208.075,150.696 206.700 C 150.618 205.325,150.554 206.450,150.554 209.200 M172.905 204.687 C 173.514 204.779,174.414 204.777,174.905 204.682 C 175.397 204.587,174.900 204.511,173.800 204.514 C 172.700 204.517,172.297 204.595,172.905 204.687 M284.981 206.500 L 283.400 208.200 285.100 206.619 C 286.681 205.148,286.984 204.800,286.681 204.800 C 286.616 204.800,285.851 205.565,284.981 206.500 M194.540 208.800 C 194.540 210.670,194.609 211.435,194.693 210.500 C 194.777 209.565,194.777 208.035,194.693 207.100 C 194.609 206.165,194.540 206.930,194.540 208.800 M263.342 209.400 C 263.341 211.380,263.408 212.240,263.492 211.312 C 263.576 210.384,263.577 208.764,263.495 207.712 C 263.412 206.660,263.343 207.420,263.342 209.400 M252.137 209.400 C 252.139 211.160,252.209 211.830,252.293 210.889 C 252.378 209.949,252.377 208.509,252.291 207.689 C 252.205 206.870,252.136 207.640,252.137 209.400 M79.582 208.600 C 80.547 209.700,81.420 210.690,81.522 210.800 C 81.625 210.910,81.519 210.640,81.287 210.200 C 81.055 209.760,80.182 208.770,79.347 208.000 C 77.903 206.669,77.915 206.699,79.582 208.600 M199.554 208.736 C 199.999 209.360,200.679 210.125,201.065 210.436 C 201.452 210.746,201.160 210.235,200.417 209.300 C 198.891 207.380,198.325 207.010,199.554 208.736 M231.599 209.500 C 232.122 210.215,232.613 210.800,232.689 210.800 C 232.993 210.800,232.001 209.300,231.345 208.767 C 230.913 208.416,231.010 208.696,231.599 209.500 M107.305 212.287 C 107.914 212.379,108.814 212.377,109.305 212.282 C 109.797 212.187,109.300 212.111,108.200 212.114 C 107.100 212.117,106.697 212.195,107.305 212.287 M203.600 212.179 C 203.600 212.289,204.140 212.659,204.800 213.000 C 205.460 213.341,206.000 213.531,206.000 213.421 C 206.000 213.311,205.460 212.941,204.800 212.600 C 204.140 212.259,203.600 212.069,203.600 212.179 M304.875 212.280 C 306.549 212.424,306.771 212.558,306.933 213.521 C 307.100 214.508,307.111 214.498,307.058 213.400 C 307.002 212.240,306.933 212.199,305.000 212.159 L 303.000 212.118 304.875 212.280 M279.701 214.200 C 279.705 215.080,279.787 215.393,279.883 214.895 C 279.979 214.398,279.975 213.678,279.875 213.295 C 279.775 212.913,279.696 213.320,279.701 214.200 M298.925 213.500 C 298.506 213.885,298.360 214.072,298.603 213.916 C 298.845 213.760,299.483 213.456,300.022 213.241 C 300.640 212.994,300.759 212.841,300.344 212.825 C 299.984 212.811,299.345 213.115,298.925 213.500 M184.500 215.476 C 184.885 215.576,185.515 215.576,185.900 215.476 C 186.285 215.375,185.970 215.293,185.200 215.293 C 184.430 215.293,184.115 215.375,184.500 215.476 M82.893 216.800 C 82.893 217.570,82.975 217.885,83.076 217.500 C 83.176 217.115,83.176 216.485,83.076 216.100 C 82.975 215.715,82.893 216.030,82.893 216.800 M84.120 218.000 C 84.120 219.210,84.195 219.705,84.287 219.100 C 84.378 218.495,84.378 217.505,84.287 216.900 C 84.195 216.295,84.120 216.790,84.120 218.000 M100.501 217.400 C 100.505 218.280,100.587 218.593,100.683 218.095 C 100.779 217.598,100.775 216.878,100.675 216.495 C 100.575 216.113,100.496 216.520,100.501 217.400 M175.700 216.287 C 176.305 216.378,177.295 216.378,177.900 216.287 C 178.505 216.195,178.010 216.120,176.800 216.120 C 175.590 216.120,175.095 216.195,175.700 216.287 M170.305 216.683 C 170.802 216.779,171.522 216.775,171.905 216.675 C 172.287 216.575,171.880 216.496,171.000 216.501 C 170.120 216.505,169.807 216.587,170.305 216.683 M65.314 217.720 C 65.801 218.226,66.274 218.587,66.364 218.523 C 66.598 218.355,65.142 216.800,64.752 216.800 C 64.574 216.800,64.827 217.214,65.314 217.720 M109.593 218.681 C 109.487 219.825,109.547 220.615,109.726 220.435 C 109.905 220.256,109.991 219.319,109.918 218.354 L 109.785 216.600 109.593 218.681 M216.514 217.720 C 217.001 218.226,217.474 218.587,217.564 218.523 C 217.798 218.355,216.342 216.800,215.952 216.800 C 215.774 216.800,216.027 217.214,216.514 217.720 M252.825 217.278 C 252.811 217.650,253.205 218.379,253.700 218.897 C 254.195 219.415,254.384 219.557,254.121 219.211 C 253.858 218.866,253.464 218.137,253.246 217.592 C 252.983 216.932,252.842 216.827,252.825 217.278 M261.689 218.717 L 260.779 220.200 261.789 219.078 C 262.345 218.460,262.800 217.785,262.800 217.578 C 262.800 216.990,262.665 217.128,261.689 218.717 M297.600 219.152 C 297.600 219.542,299.155 220.998,299.323 220.764 C 299.387 220.674,299.026 220.201,298.520 219.714 C 298.014 219.227,297.600 218.974,297.600 219.152 M82.893 220.400 C 82.893 221.170,82.975 221.485,83.076 221.100 C 83.176 220.715,83.176 220.085,83.076 219.700 C 82.975 219.315,82.893 219.630,82.893 220.400 M322.940 222.400 C 322.940 224.270,323.009 225.035,323.093 224.100 C 323.177 223.165,323.177 221.635,323.093 220.700 C 323.009 219.765,322.940 220.530,322.940 222.400 M186.705 219.883 C 187.202 219.979,187.922 219.975,188.305 219.875 C 188.687 219.775,188.280 219.696,187.400 219.701 C 186.520 219.705,186.207 219.787,186.705 219.883 M53.700 220.676 C 54.085 220.776,54.715 220.776,55.100 220.676 C 55.485 220.575,55.170 220.493,54.400 220.493 C 53.630 220.493,53.315 220.575,53.700 220.676 M173.913 220.695 C 175.076 220.776,176.876 220.776,177.913 220.693 C 178.951 220.611,178.000 220.545,175.800 220.546 C 173.600 220.547,172.751 220.614,173.913 220.695 M205.105 220.683 C 205.602 220.779,206.322 220.775,206.705 220.675 C 207.087 220.575,206.680 220.496,205.800 220.501 C 204.920 220.505,204.607 220.587,205.105 220.683 M58.912 221.095 C 59.964 221.177,61.584 221.176,62.512 221.092 C 63.440 221.008,62.580 220.941,60.600 220.942 C 58.620 220.943,57.860 221.012,58.912 221.095 M210.100 221.094 C 211.145 221.176,212.855 221.176,213.900 221.094 C 214.945 221.012,214.090 220.944,212.000 220.944 C 209.910 220.944,209.055 221.012,210.100 221.094 M147.293 222.400 C 147.293 223.170,147.375 223.485,147.476 223.100 C 147.576 222.715,147.576 222.085,147.476 221.700 C 147.375 221.315,147.293 221.630,147.293 222.400 M130.514 223.400 C 130.517 224.500,130.595 224.903,130.687 224.295 C 130.779 223.686,130.777 222.786,130.682 222.295 C 130.587 221.803,130.511 222.300,130.514 223.400 M152.400 222.953 C 152.400 223.382,153.590 225.600,153.821 225.600 C 153.931 225.600,153.723 225.015,153.359 224.300 C 152.617 222.840,152.400 222.536,152.400 222.953 M192.893 224.400 C 192.893 225.170,192.975 225.485,193.076 225.100 C 193.176 224.715,193.176 224.085,193.076 223.700 C 192.975 223.315,192.893 223.630,192.893 224.400 M277.078 225.005 C 276.712 225.772,276.495 226.400,276.596 226.400 C 276.870 226.400,278.084 223.951,277.901 223.768 C 277.814 223.681,277.444 224.238,277.078 225.005 M196.493 226.000 C 196.493 226.770,196.575 227.085,196.676 226.700 C 196.776 226.315,196.776 225.685,196.676 225.300 C 196.575 224.915,196.493 225.230,196.493 226.000 M79.852 228.500 C 78.975 229.690,78.715 230.220,79.252 229.724 C 80.097 228.943,81.835 226.399,81.523 226.400 C 81.455 226.401,80.703 227.346,79.852 228.500 M125.693 227.600 C 125.693 228.370,125.775 228.685,125.876 228.300 C 125.976 227.915,125.976 227.285,125.876 226.900 C 125.775 226.515,125.693 226.830,125.693 227.600 M240.000 228.125 C 240.000 228.194,240.585 228.779,241.300 229.425 L 242.600 230.600 241.425 229.300 C 240.330 228.088,240.000 227.816,240.000 228.125 M274.000 229.311 C 273.230 230.020,272.150 230.923,271.600 231.317 C 270.635 232.010,270.646 232.010,271.912 231.324 C 273.052 230.707,276.068 227.981,275.578 228.011 C 275.480 228.017,274.770 228.602,274.000 229.311 M285.000 229.600 C 285.859 230.480,286.652 231.200,286.762 231.200 C 286.872 231.200,286.259 230.480,285.400 229.600 C 284.541 228.720,283.748 228.000,283.638 228.000 C 283.528 228.000,284.141 228.720,285.000 229.600 M322.400 228.485 C 322.400 228.824,321.995 229.400,321.500 229.763 L 320.600 230.423 321.523 229.985 C 322.485 229.529,323.078 228.545,322.649 228.116 C 322.512 227.979,322.400 228.145,322.400 228.485 M230.194 229.512 C 229.531 230.110,228.541 230.923,227.994 231.317 C 227.037 232.008,227.049 232.008,228.318 231.321 C 229.043 230.928,230.111 230.110,230.693 229.503 C 232.043 228.094,231.760 228.099,230.194 229.512 M122.800 230.600 C 121.810 231.130,121.142 231.572,121.316 231.582 C 121.741 231.606,124.800 230.034,124.800 229.792 C 124.800 229.527,124.817 229.520,122.800 230.600 M243.021 230.834 C 243.295 231.277,245.616 232.518,245.809 232.324 C 245.884 232.250,245.235 231.800,244.368 231.325 C 243.500 230.850,242.894 230.629,243.021 230.834 M132.007 231.418 C 131.994 232.166,134.584 236.141,135.200 236.319 C 135.646 236.447,135.623 236.351,135.111 235.946 C 134.733 235.646,133.881 234.410,133.219 233.200 C 132.556 231.990,132.011 231.188,132.007 231.418 M145.600 231.800 C 145.050 232.114,144.780 232.372,145.000 232.372 C 145.220 232.372,145.850 232.114,146.400 231.800 C 146.950 231.486,147.220 231.228,147.000 231.228 C 146.780 231.228,146.150 231.486,145.600 231.800 M54.100 233.876 C 54.485 233.976,55.115 233.976,55.500 233.876 C 55.885 233.775,55.570 233.693,54.800 233.693 C 54.030 233.693,53.715 233.775,54.100 233.876 M181.905 233.883 C 182.402 233.979,183.122 233.975,183.505 233.875 C 183.887 233.775,183.480 233.696,182.600 233.701 C 181.720 233.705,181.407 233.787,181.905 233.883 M205.300 233.876 C 205.685 233.976,206.315 233.976,206.700 233.876 C 207.085 233.775,206.770 233.693,206.000 233.693 C 205.230 233.693,204.915 233.775,205.300 233.876 M308.500 233.876 C 308.885 233.976,309.515 233.976,309.900 233.876 C 310.285 233.775,309.970 233.693,309.200 233.693 C 308.430 233.693,308.115 233.775,308.500 233.876 M332.300 233.898 C 334.335 233.971,337.665 233.971,339.700 233.898 C 341.735 233.825,340.070 233.766,336.000 233.766 C 331.930 233.766,330.265 233.825,332.300 233.898 M58.700 234.282 C 59.195 234.378,60.005 234.378,60.500 234.282 C 60.995 234.187,60.590 234.109,59.600 234.109 C 58.610 234.109,58.205 234.187,58.700 234.282 M65.905 234.283 C 66.402 234.379,67.122 234.375,67.505 234.275 C 67.887 234.175,67.480 234.096,66.600 234.101 C 65.720 234.105,65.407 234.187,65.905 234.283 M100.100 234.276 C 100.485 234.376,101.115 234.376,101.500 234.276 C 101.885 234.175,101.570 234.093,100.800 234.093 C 100.030 234.093,99.715 234.175,100.100 234.276 M107.100 234.282 C 107.595 234.378,108.405 234.378,108.900 234.282 C 109.395 234.187,108.990 234.109,108.000 234.109 C 107.010 234.109,106.605 234.187,107.100 234.282 M175.700 234.287 C 176.305 234.378,177.295 234.378,177.900 234.287 C 178.505 234.195,178.010 234.120,176.800 234.120 C 175.590 234.120,175.095 234.195,175.700 234.287 M209.900 234.282 C 210.395 234.378,211.205 234.378,211.700 234.282 C 212.195 234.187,211.790 234.109,210.800 234.109 C 209.810 234.109,209.405 234.187,209.900 234.282 M217.105 234.283 C 217.602 234.379,218.322 234.375,218.705 234.275 C 219.087 234.175,218.680 234.096,217.800 234.101 C 216.920 234.105,216.607 234.187,217.105 234.283 M253.700 234.276 C 254.085 234.376,254.715 234.376,255.100 234.276 C 255.485 234.175,255.170 234.093,254.400 234.093 C 253.630 234.093,253.315 234.175,253.700 234.276 M260.500 234.276 C 260.885 234.376,261.515 234.376,261.900 234.276 C 262.285 234.175,261.970 234.093,261.200 234.093 C 260.430 234.093,260.115 234.175,260.500 234.276 M297.105 234.283 C 297.602 234.379,298.322 234.375,298.705 234.275 C 299.087 234.175,298.680 234.096,297.800 234.101 C 296.920 234.105,296.607 234.187,297.105 234.283 M303.900 234.282 C 304.395 234.378,305.205 234.378,305.700 234.282 C 306.195 234.187,305.790 234.109,304.800 234.109 C 303.810 234.109,303.405 234.187,303.900 234.282 M138.800 235.000 C 138.250 235.314,137.980 235.572,138.200 235.572 C 138.420 235.572,139.050 235.314,139.600 235.000 C 140.150 234.686,140.420 234.428,140.200 234.428 C 139.980 234.428,139.350 234.686,138.800 235.000 " stroke="none" fill="#d4ecd2" fill-rule="evenodd"></path></g></svg>