<svg xmlns="http://www.w3.org/2000/svg" xmlns:xlink="http://www.w3.org/1999/xlink" viewBox="0 0 66.019 62.019" fill="#fff" fill-rule="evenodd" stroke="#000" stroke-linecap="round" stroke-linejoin="round"><use xlink:href="#A" x=".509" y=".509"/><symbol id="A" overflow="visible"><g stroke="none"><path d="M39.593 32.78L23.879 44.827h18.335L21.913 60.936h5.632l25.013-19.383H34.093l11.261-8.773z" fill="#eea852"/><path d="M21.997 21.692h-5.656L0 34.37l20.95.105c9.742 0 19.797-3.615 19.797-12.729S30.586 6.711 13.512 12.997c-1.151 1.257-6.075 5.868-6.913 6.706 16.236-8.17 30.534-7.743 30.534 1.991 0 9.22-14.717 9.22-16.183 9.22H10.265z" fill="#3da0ca"/><path d="M13.511 12.996c-1.151 1.257-6.075 5.868-6.913 6.705 3.625-1.834 7.154-3.219 10.447-4.18 2.452-3.234 9.036-12.058 18.358-12.058 9.951 0 13.303 5.868 13.303 9.325 0 3.771-2.828 6.602-2.828 6.602s4.294.21 6.39.21 8.066.629 8.066 6.391-6.808 6.602-9.113 6.602H39.812l-4.503 3.563 15.397.104c6.913 0 13.303-3.458 13.303-10.267s-5.866-9.848-11.94-9.848c.628-1.047.838-2.096.838-3.362S50.814 0 35.206 0C25.15 0 18.957 7.946 13.524 12.991z" fill="#2c6ba3"/><path d="M39.793 32.595h5.812l-4.652 3.614-5.759-.056z" fill="#928680"/><path d="M17.045 15.52l-.107.033c-2.357.764-7.401 2.852-10.34 4.146.838-.837 5.761-5.448 6.913-6.705 2.608-.961 5.056-1.635 7.331-2.058-1.691 1.793-2.977 3.5-3.797 4.582z" fill="#3288ba"/></g></symbol></svg>